<svg width="326" height="99" viewBox="0 0 326 99" fill="none" xmlns="http://www.w3.org/2000/svg">
<g filter="url(#filter0_d_0_1)">
<rect x="17" y="13" width="292" height="65" rx="32.5" fill="white"/>
</g>
<path d="M42.598 53V38.4545H47.9247C48.9569 38.4545 49.8116 38.625 50.4886 38.9659C51.1657 39.3021 51.6723 39.759 52.0085 40.3366C52.3447 40.9096 52.5128 41.5559 52.5128 42.2756C52.5128 42.8816 52.4015 43.393 52.179 43.8097C51.9564 44.2216 51.6581 44.553 51.2841 44.804C50.9148 45.0502 50.5076 45.2301 50.0625 45.3438V45.4858C50.5455 45.5095 51.0166 45.6657 51.4759 45.9545C51.9399 46.2386 52.3234 46.6435 52.6264 47.169C52.9295 47.6946 53.081 48.3338 53.081 49.0866C53.081 49.83 52.9058 50.4976 52.5554 51.0895C52.2098 51.6766 51.6747 52.143 50.9503 52.4886C50.2259 52.8295 49.3002 53 48.1733 53H42.598ZM44.7926 51.1179H47.9602C49.0114 51.1179 49.7642 50.9143 50.2188 50.5071C50.6733 50.0999 50.9006 49.5909 50.9006 48.9801C50.9006 48.5208 50.7846 48.0994 50.5526 47.7159C50.3205 47.3324 49.9891 47.027 49.5582 46.7997C49.1321 46.5724 48.6255 46.4588 48.0384 46.4588H44.7926V51.1179ZM44.7926 44.7472H47.733C48.2254 44.7472 48.6681 44.6525 49.0611 44.4631C49.4588 44.2737 49.7737 44.0085 50.0057 43.6676C50.2424 43.322 50.3608 42.9148 50.3608 42.446C50.3608 41.8447 50.1501 41.3404 49.7287 40.9332C49.3073 40.526 48.661 40.3224 47.7898 40.3224H44.7926V44.7472ZM58.6882 53.2415C57.9969 53.2415 57.3719 53.1136 56.8132 52.858C56.2545 52.5975 55.8118 52.2211 55.4851 51.7287C55.1631 51.2363 55.0021 50.6326 55.0021 49.9176C55.0021 49.3021 55.1205 48.7955 55.3572 48.3977C55.594 48 55.9136 47.6851 56.3161 47.4531C56.7185 47.2211 57.1683 47.0459 57.6655 46.9276C58.1626 46.8092 58.6693 46.7192 59.1854 46.6577C59.8388 46.5819 60.3691 46.5204 60.7763 46.473C61.1835 46.4209 61.4794 46.3381 61.6641 46.2244C61.8487 46.1108 61.9411 45.9261 61.9411 45.6705V45.6207C61.9411 45.0005 61.7659 44.5199 61.4155 44.179C61.0698 43.8381 60.5537 43.6676 59.8672 43.6676C59.1522 43.6676 58.5888 43.8262 58.1768 44.1435C57.7696 44.456 57.4879 44.804 57.3317 45.1875L55.3359 44.733C55.5727 44.0701 55.9183 43.535 56.3729 43.1278C56.8321 42.7159 57.3601 42.4176 57.9567 42.233C58.5533 42.0436 59.1806 41.9489 59.8388 41.9489C60.2744 41.9489 60.736 42.0009 61.2237 42.1051C61.7161 42.2045 62.1754 42.3892 62.6016 42.6591C63.0324 42.929 63.3852 43.3149 63.6598 43.8168C63.9344 44.3139 64.0717 44.9602 64.0717 45.7557V53H61.9979V51.5085H61.9126C61.7753 51.7831 61.5694 52.053 61.2947 52.3182C61.0201 52.5833 60.6674 52.8035 60.2365 52.9787C59.8056 53.1539 59.2895 53.2415 58.6882 53.2415ZM59.1499 51.5369C59.737 51.5369 60.2389 51.4209 60.6555 51.1889C61.0769 50.9569 61.3965 50.6539 61.6143 50.2798C61.8369 49.901 61.9482 49.4962 61.9482 49.0653V47.6591C61.8724 47.7348 61.7256 47.8059 61.5078 47.8722C61.2947 47.9337 61.0509 47.9882 60.7763 48.0355C60.5017 48.0781 60.2341 48.1184 59.9737 48.1562C59.7133 48.1894 59.4955 48.2178 59.3203 48.2415C58.9084 48.2936 58.532 48.3812 58.1911 48.5043C57.8549 48.6274 57.585 48.8049 57.3814 49.0369C57.1825 49.2642 57.0831 49.5672 57.0831 49.946C57.0831 50.4716 57.2772 50.8693 57.6655 51.1392C58.0537 51.4044 58.5485 51.5369 59.1499 51.5369ZM66.9002 53V42.0909H68.9528V43.8239H69.0664C69.2653 43.2367 69.6156 42.7751 70.1175 42.4389C70.6242 42.098 71.1971 41.9276 71.8363 41.9276C71.9689 41.9276 72.1251 41.9323 72.305 41.9418C72.4897 41.9512 72.6341 41.9631 72.7383 41.9773V44.0085C72.6531 43.9848 72.5015 43.9588 72.2837 43.9304C72.0659 43.8973 71.8481 43.8807 71.6303 43.8807C71.1284 43.8807 70.681 43.9872 70.288 44.2003C69.8997 44.4086 69.592 44.6998 69.3647 45.0739C69.1374 45.4432 69.0238 45.8646 69.0238 46.3381V53H66.9002ZM74.7464 53V38.4545H76.87V43.8594H76.9979C77.121 43.6321 77.2985 43.3693 77.5305 43.071C77.7625 42.7727 78.0845 42.5123 78.4964 42.2898C78.9084 42.0625 79.4529 41.9489 80.13 41.9489C81.0107 41.9489 81.7966 42.1714 82.4879 42.6165C83.1792 43.0616 83.7214 43.7031 84.1143 44.5412C84.5121 45.3793 84.7109 46.3878 84.7109 47.5668C84.7109 48.7457 84.5144 49.7566 84.1214 50.5994C83.7285 51.4375 83.1887 52.0838 82.5021 52.5384C81.8156 52.9882 81.032 53.2131 80.1513 53.2131C79.4884 53.2131 78.9463 53.1018 78.5249 52.8793C78.1082 52.6567 77.7815 52.3963 77.5447 52.098C77.308 51.7997 77.1257 51.5346 76.9979 51.3026H76.8203V53H74.7464ZM76.8274 47.5455C76.8274 48.3125 76.9387 48.9848 77.1612 49.5625C77.3838 50.1402 77.7057 50.5923 78.1271 50.919C78.5485 51.241 79.0646 51.402 79.6754 51.402C80.3099 51.402 80.8402 51.2339 81.2663 50.8977C81.6925 50.5568 82.0144 50.0952 82.2322 49.5128C82.4548 48.9304 82.5661 48.2746 82.5661 47.5455C82.5661 46.8258 82.4571 46.1795 82.2393 45.6065C82.0263 45.0336 81.7043 44.5814 81.2734 44.25C80.8473 43.9186 80.3146 43.7528 79.6754 43.7528C79.0599 43.7528 78.5391 43.9115 78.1129 44.2287C77.6915 44.5459 77.3719 44.9886 77.1541 45.5568C76.9363 46.125 76.8274 46.7879 76.8274 47.5455ZM90.2702 53.2415C89.579 53.2415 88.954 53.1136 88.3952 52.858C87.8365 52.5975 87.3938 52.2211 87.0671 51.7287C86.7451 51.2363 86.5842 50.6326 86.5842 49.9176C86.5842 49.3021 86.7025 48.7955 86.9393 48.3977C87.176 48 87.4956 47.6851 87.8981 47.4531C88.3005 47.2211 88.7504 47.0459 89.2475 46.9276C89.7447 46.8092 90.2513 46.7192 90.7674 46.6577C91.4208 46.5819 91.9511 46.5204 92.3583 46.473C92.7655 46.4209 93.0614 46.3381 93.2461 46.2244C93.4308 46.1108 93.5231 45.9261 93.5231 45.6705V45.6207C93.5231 45.0005 93.3479 44.5199 92.9975 44.179C92.6519 43.8381 92.1358 43.6676 91.4492 43.6676C90.7343 43.6676 90.1708 43.8262 89.7589 44.1435C89.3517 44.456 89.07 44.804 88.9137 45.1875L86.918 44.733C87.1547 44.0701 87.5004 43.535 87.9549 43.1278C88.4142 42.7159 88.9421 42.4176 89.5387 42.233C90.1353 42.0436 90.7627 41.9489 91.4208 41.9489C91.8564 41.9489 92.3181 42.0009 92.8058 42.1051C93.2982 42.2045 93.7575 42.3892 94.1836 42.6591C94.6145 42.929 94.9672 43.3149 95.2418 43.8168C95.5165 44.3139 95.6538 44.9602 95.6538 45.7557V53H93.5799V51.5085H93.4947C93.3574 51.7831 93.1514 52.053 92.8768 52.3182C92.6022 52.5833 92.2494 52.8035 91.8185 52.9787C91.3877 53.1539 90.8716 53.2415 90.2702 53.2415ZM90.7319 51.5369C91.319 51.5369 91.8209 51.4209 92.2376 51.1889C92.659 50.9569 92.9786 50.6539 93.1964 50.2798C93.4189 49.901 93.5302 49.4962 93.5302 49.0653V47.6591C93.4544 47.7348 93.3076 47.8059 93.0898 47.8722C92.8768 47.9337 92.6329 47.9882 92.3583 48.0355C92.0837 48.0781 91.8162 48.1184 91.5558 48.1562C91.2953 48.1894 91.0775 48.2178 90.9023 48.2415C90.4904 48.2936 90.114 48.3812 89.7731 48.5043C89.4369 48.6274 89.167 48.8049 88.9634 49.0369C88.7646 49.2642 88.6651 49.5672 88.6651 49.946C88.6651 50.4716 88.8593 50.8693 89.2475 51.1392C89.6358 51.4044 90.1306 51.5369 90.7319 51.5369ZM102.566 53.2131C101.685 53.2131 100.899 52.9882 100.208 52.5384C99.5215 52.0838 98.9818 51.4375 98.5888 50.5994C98.2005 49.7566 98.0064 48.7457 98.0064 47.5668C98.0064 46.3878 98.2029 45.3793 98.5959 44.5412C98.9936 43.7031 99.5381 43.0616 100.229 42.6165C100.921 42.1714 101.704 41.9489 102.58 41.9489C103.257 41.9489 103.802 42.0625 104.214 42.2898C104.63 42.5123 104.952 42.7727 105.18 43.071C105.412 43.3693 105.592 43.6321 105.719 43.8594H105.847V38.4545H107.971V53H105.897V51.3026H105.719C105.592 51.5346 105.407 51.7997 105.165 52.098C104.929 52.3963 104.602 52.6567 104.185 52.8793C103.769 53.1018 103.229 53.2131 102.566 53.2131ZM103.035 51.402C103.646 51.402 104.162 51.241 104.583 50.919C105.009 50.5923 105.331 50.1402 105.549 49.5625C105.772 48.9848 105.883 48.3125 105.883 47.5455C105.883 46.7879 105.774 46.125 105.556 45.5568C105.338 44.9886 105.019 44.5459 104.597 44.2287C104.176 43.9115 103.655 43.7528 103.035 43.7528C102.396 43.7528 101.863 43.9186 101.437 44.25C101.011 44.5814 100.689 45.0336 100.471 45.6065C100.258 46.1795 100.151 46.8258 100.151 47.5455C100.151 48.2746 100.26 48.9304 100.478 49.5128C100.696 50.0952 101.018 50.5568 101.444 50.8977C101.875 51.2339 102.405 51.402 103.035 51.402ZM115.597 53.2202C114.574 53.2202 113.682 52.9858 112.919 52.517C112.157 52.0483 111.565 51.3925 111.144 50.5497C110.722 49.7069 110.512 48.7221 110.512 47.5952C110.512 46.4635 110.722 45.474 111.144 44.6264C111.565 43.7789 112.157 43.1207 112.919 42.652C113.682 42.1832 114.574 41.9489 115.597 41.9489C116.62 41.9489 117.512 42.1832 118.275 42.652C119.037 43.1207 119.629 43.7789 120.05 44.6264C120.471 45.474 120.682 46.4635 120.682 47.5952C120.682 48.7221 120.471 49.7069 120.05 50.5497C119.629 51.3925 119.037 52.0483 118.275 52.517C117.512 52.9858 116.62 53.2202 115.597 53.2202ZM115.604 51.4375C116.267 51.4375 116.816 51.2623 117.252 50.9119C117.687 50.5616 118.009 50.0952 118.218 49.5128C118.431 48.9304 118.537 48.2888 118.537 47.5881C118.537 46.892 118.431 46.2528 118.218 45.6705C118.009 45.0833 117.687 44.6122 117.252 44.2571C116.816 43.902 116.267 43.7244 115.604 43.7244C114.936 43.7244 114.382 43.902 113.942 44.2571C113.507 44.6122 113.182 45.0833 112.969 45.6705C112.761 46.2528 112.657 46.892 112.657 47.5881C112.657 48.2888 112.761 48.9304 112.969 49.5128C113.182 50.0952 113.507 50.5616 113.942 50.9119C114.382 51.2623 114.936 51.4375 115.604 51.4375ZM131.227 44.7543L129.303 45.0952C129.222 44.849 129.094 44.6146 128.919 44.392C128.749 44.1695 128.517 43.9872 128.223 43.8452C127.929 43.7031 127.563 43.6321 127.122 43.6321C126.521 43.6321 126.019 43.767 125.616 44.0369C125.214 44.3021 125.013 44.6454 125.013 45.0668C125.013 45.4313 125.148 45.7249 125.418 45.9474C125.688 46.17 126.123 46.3523 126.724 46.4943L128.457 46.892C129.461 47.1241 130.209 47.4815 130.702 47.9645C131.194 48.4474 131.44 49.0748 131.44 49.8466C131.44 50.5 131.251 51.0824 130.872 51.5938C130.498 52.1004 129.975 52.4981 129.303 52.7869C128.635 53.0758 127.861 53.2202 126.98 53.2202C125.759 53.2202 124.762 52.9598 123.99 52.4389C123.218 51.9134 122.745 51.1676 122.57 50.2017L124.622 49.8892C124.75 50.4242 125.013 50.8291 125.411 51.1037C125.808 51.3736 126.327 51.5085 126.966 51.5085C127.662 51.5085 128.218 51.3641 128.635 51.0753C129.052 50.7817 129.26 50.4242 129.26 50.0028C129.26 49.6619 129.132 49.3755 128.876 49.1435C128.625 48.9115 128.24 48.7363 127.719 48.6179L125.872 48.2131C124.854 47.9811 124.101 47.6117 123.614 47.1051C123.131 46.5985 122.889 45.9569 122.889 45.1804C122.889 44.5365 123.069 43.973 123.429 43.4901C123.789 43.0071 124.286 42.6307 124.92 42.3608C125.555 42.0862 126.282 41.9489 127.101 41.9489C128.28 41.9489 129.208 42.2045 129.885 42.7159C130.562 43.2225 131.009 43.902 131.227 44.7543ZM151.32 43.1847H149.104C149.018 42.7112 148.86 42.2945 148.628 41.9347C148.396 41.5748 148.112 41.2694 147.776 41.0185C147.439 40.7675 147.063 40.5781 146.646 40.4503C146.234 40.3224 145.796 40.2585 145.332 40.2585C144.494 40.2585 143.744 40.4692 143.081 40.8906C142.423 41.312 141.902 41.9299 141.518 42.7443C141.14 43.5587 140.95 44.553 140.95 45.7273C140.95 46.911 141.14 47.91 141.518 48.7244C141.902 49.5388 142.425 50.1544 143.088 50.571C143.751 50.9877 144.497 51.196 145.325 51.196C145.785 51.196 146.22 51.1345 146.632 51.0114C147.049 50.8835 147.425 50.6965 147.761 50.4503C148.098 50.2041 148.382 49.9034 148.614 49.5483C148.85 49.1884 149.014 48.7765 149.104 48.3125L151.32 48.3196C151.201 49.0346 150.972 49.6927 150.631 50.294C150.295 50.8906 149.861 51.4067 149.331 51.8423C148.805 52.2732 148.204 52.607 147.527 52.8438C146.85 53.0805 146.111 53.1989 145.311 53.1989C144.052 53.1989 142.929 52.9006 141.945 52.304C140.96 51.7027 140.183 50.8433 139.615 49.7259C139.052 48.6084 138.77 47.2756 138.77 45.7273C138.77 44.1742 139.054 42.8414 139.622 41.7287C140.19 40.6113 140.967 39.7543 141.952 39.1577C142.937 38.5563 144.056 38.2557 145.311 38.2557C146.083 38.2557 146.803 38.367 147.47 38.5895C148.143 38.8073 148.746 39.1293 149.281 39.5554C149.816 39.9768 150.259 40.4929 150.609 41.1037C150.96 41.7098 151.196 42.4034 151.32 43.1847ZM156.95 53.2415C156.259 53.2415 155.634 53.1136 155.075 52.858C154.516 52.5975 154.074 52.2211 153.747 51.7287C153.425 51.2363 153.264 50.6326 153.264 49.9176C153.264 49.3021 153.382 48.7955 153.619 48.3977C153.856 48 154.175 47.6851 154.578 47.4531C154.98 47.2211 155.43 47.0459 155.927 46.9276C156.424 46.8092 156.931 46.7192 157.447 46.6577C158.1 46.5819 158.631 46.5204 159.038 46.473C159.445 46.4209 159.741 46.3381 159.926 46.2244C160.11 46.1108 160.203 45.9261 160.203 45.6705V45.6207C160.203 45.0005 160.028 44.5199 159.677 44.179C159.332 43.8381 158.815 43.6676 158.129 43.6676C157.414 43.6676 156.85 43.8262 156.439 44.1435C156.031 44.456 155.75 44.804 155.593 45.1875L153.598 44.733C153.834 44.0701 154.18 43.535 154.635 43.1278C155.094 42.7159 155.622 42.4176 156.218 42.233C156.815 42.0436 157.442 41.9489 158.1 41.9489C158.536 41.9489 158.998 42.0009 159.485 42.1051C159.978 42.2045 160.437 42.3892 160.863 42.6591C161.294 42.929 161.647 43.3149 161.922 43.8168C162.196 44.3139 162.333 44.9602 162.333 45.7557V53H160.26V51.5085H160.174C160.037 51.7831 159.831 52.053 159.556 52.3182C159.282 52.5833 158.929 52.8035 158.498 52.9787C158.067 53.1539 157.551 53.2415 156.95 53.2415ZM157.412 51.5369C157.999 51.5369 158.501 51.4209 158.917 51.1889C159.339 50.9569 159.658 50.6539 159.876 50.2798C160.099 49.901 160.21 49.4962 160.21 49.0653V47.6591C160.134 47.7348 159.987 47.8059 159.77 47.8722C159.556 47.9337 159.313 47.9882 159.038 48.0355C158.763 48.0781 158.496 48.1184 158.235 48.1562C157.975 48.1894 157.757 48.2178 157.582 48.2415C157.17 48.2936 156.794 48.3812 156.453 48.5043C156.117 48.6274 155.847 48.8049 155.643 49.0369C155.444 49.2642 155.345 49.5672 155.345 49.946C155.345 50.4716 155.539 50.8693 155.927 51.1392C156.315 51.4044 156.81 51.5369 157.412 51.5369ZM167.286 46.5227V53H165.162V42.0909H167.2V43.8665H167.335C167.586 43.2888 167.979 42.8248 168.514 42.4744C169.054 42.1241 169.733 41.9489 170.553 41.9489C171.296 41.9489 171.947 42.1051 172.506 42.4176C173.064 42.7254 173.498 43.1847 173.805 43.7955C174.113 44.4062 174.267 45.1615 174.267 46.0611V53H172.143V46.3168C172.143 45.526 171.938 44.9081 171.526 44.4631C171.114 44.0133 170.548 43.7884 169.828 43.7884C169.336 43.7884 168.898 43.8949 168.514 44.108C168.135 44.321 167.835 44.6335 167.612 45.0455C167.394 45.4527 167.286 45.9451 167.286 46.5227ZM181.71 53.2202C180.654 53.2202 179.745 52.9811 178.983 52.5028C178.225 52.0199 177.643 51.3546 177.236 50.5071C176.829 49.6596 176.625 48.6889 176.625 47.5952C176.625 46.4872 176.833 45.5095 177.25 44.6619C177.667 43.8097 178.254 43.1444 179.011 42.6662C179.769 42.188 180.661 41.9489 181.689 41.9489C182.518 41.9489 183.256 42.1027 183.905 42.4105C184.554 42.7135 185.077 43.1397 185.474 43.6889C185.877 44.2382 186.116 44.8797 186.192 45.6136H184.125C184.011 45.1023 183.751 44.6619 183.344 44.2926C182.941 43.9233 182.402 43.7386 181.724 43.7386C181.133 43.7386 180.614 43.8949 180.169 44.2074C179.729 44.5152 179.385 44.9555 179.139 45.5284C178.893 46.0966 178.77 46.7689 178.77 47.5455C178.77 48.3409 178.891 49.0275 179.132 49.6051C179.374 50.1828 179.714 50.6302 180.155 50.9474C180.6 51.2647 181.123 51.4233 181.724 51.4233C182.127 51.4233 182.491 51.3499 182.818 51.2031C183.15 51.0516 183.427 50.8362 183.649 50.5568C183.876 50.2775 184.035 49.9413 184.125 49.5483H186.192C186.116 50.2538 185.886 50.8835 185.503 51.4375C185.119 51.9915 184.606 52.4271 183.962 52.7443C183.322 53.0616 182.572 53.2202 181.71 53.2202ZM193.164 53.2202C192.09 53.2202 191.164 52.9905 190.387 52.5312C189.616 52.0672 189.019 51.4162 188.598 50.5781C188.181 49.7353 187.973 48.7481 187.973 47.6165C187.973 46.4991 188.181 45.5142 188.598 44.6619C189.019 43.8097 189.606 43.1444 190.359 42.6662C191.117 42.188 192.002 41.9489 193.015 41.9489C193.631 41.9489 194.227 42.0507 194.805 42.2543C195.383 42.4579 195.901 42.7775 196.36 43.2131C196.82 43.6487 197.182 44.2145 197.447 44.9105C197.712 45.6018 197.845 46.4422 197.845 47.4318V48.1847H189.173V46.5938H195.764C195.764 46.035 195.65 45.5402 195.423 45.1094C195.196 44.6738 194.876 44.3305 194.464 44.0795C194.057 43.8286 193.579 43.7031 193.029 43.7031C192.433 43.7031 191.912 43.8499 191.467 44.1435C191.027 44.4323 190.686 44.8111 190.444 45.2798C190.208 45.7438 190.089 46.2481 190.089 46.7926V48.0355C190.089 48.7647 190.217 49.3849 190.473 49.8963C190.733 50.4077 191.095 50.7983 191.559 51.0682C192.023 51.3333 192.565 51.4659 193.186 51.4659C193.588 51.4659 193.955 51.4091 194.287 51.2955C194.618 51.1771 194.904 51.0019 195.146 50.7699C195.387 50.5379 195.572 50.2514 195.7 49.9105L197.71 50.2727C197.549 50.8646 197.26 51.383 196.843 51.8281C196.431 52.2685 195.913 52.6117 195.288 52.858C194.668 53.0994 193.96 53.2202 193.164 53.2202ZM200.201 53V42.0909H202.254V43.8239H202.367C202.566 43.2367 202.916 42.7751 203.418 42.4389C203.925 42.098 204.498 41.9276 205.137 41.9276C205.27 41.9276 205.426 41.9323 205.606 41.9418C205.79 41.9512 205.935 41.9631 206.039 41.9773V44.0085C205.954 43.9848 205.802 43.9588 205.585 43.9304C205.367 43.8973 205.149 43.8807 204.931 43.8807C204.429 43.8807 203.982 43.9872 203.589 44.2003C203.201 44.4086 202.893 44.6998 202.665 45.0739C202.438 45.4432 202.325 45.8646 202.325 46.3381V53H200.201ZM221.273 42.2756C221.198 41.6032 220.885 41.0824 220.336 40.7131C219.787 40.339 219.095 40.152 218.262 40.152C217.665 40.152 217.149 40.2467 216.714 40.4361C216.278 40.6207 215.94 40.8764 215.698 41.2031C215.461 41.5251 215.343 41.892 215.343 42.304C215.343 42.6496 215.424 42.9479 215.585 43.1989C215.75 43.4498 215.966 43.6605 216.231 43.831C216.501 43.9967 216.79 44.1364 217.097 44.25C217.405 44.3589 217.701 44.4489 217.985 44.5199L219.406 44.8892C219.87 45.0028 220.345 45.1567 220.833 45.3509C221.321 45.545 221.773 45.8007 222.19 46.1179C222.606 46.4351 222.942 46.8281 223.198 47.2969C223.459 47.7656 223.589 48.3267 223.589 48.9801C223.589 49.804 223.376 50.5355 222.95 51.1747C222.528 51.8139 221.915 52.3182 221.11 52.6875C220.31 53.0568 219.342 53.2415 218.205 53.2415C217.116 53.2415 216.174 53.0687 215.379 52.723C214.583 52.3774 213.96 51.8873 213.511 51.2528C213.061 50.6136 212.812 49.8561 212.765 48.9801H214.967C215.009 49.5057 215.18 49.9437 215.478 50.294C215.781 50.6397 216.167 50.8977 216.636 51.0682C217.109 51.2339 217.628 51.3168 218.191 51.3168C218.811 51.3168 219.363 51.2197 219.846 51.0256C220.334 50.8267 220.717 50.5521 220.996 50.2017C221.276 49.8466 221.415 49.4323 221.415 48.9588C221.415 48.5279 221.292 48.1752 221.046 47.9006C220.805 47.6259 220.476 47.3987 220.059 47.2188C219.647 47.0388 219.181 46.8802 218.66 46.7429L216.941 46.2741C215.776 45.9569 214.853 45.4905 214.171 44.875C213.494 44.2595 213.156 43.4451 213.156 42.4318C213.156 41.5937 213.383 40.8622 213.837 40.2372C214.292 39.6122 214.907 39.1269 215.684 38.7812C216.46 38.4309 217.336 38.2557 218.312 38.2557C219.297 38.2557 220.165 38.4285 220.918 38.7741C221.676 39.1198 222.272 39.5956 222.708 40.2017C223.144 40.803 223.371 41.4943 223.39 42.2756H221.273ZM230.636 53.2202C229.613 53.2202 228.721 52.9858 227.958 52.517C227.196 52.0483 226.604 51.3925 226.183 50.5497C225.761 49.7069 225.551 48.7221 225.551 47.5952C225.551 46.4635 225.761 45.474 226.183 44.6264C226.604 43.7789 227.196 43.1207 227.958 42.652C228.721 42.1832 229.613 41.9489 230.636 41.9489C231.659 41.9489 232.551 42.1832 233.314 42.652C234.076 43.1207 234.668 43.7789 235.089 44.6264C235.511 45.474 235.721 46.4635 235.721 47.5952C235.721 48.7221 235.511 49.7069 235.089 50.5497C234.668 51.3925 234.076 52.0483 233.314 52.517C232.551 52.9858 231.659 53.2202 230.636 53.2202ZM230.643 51.4375C231.306 51.4375 231.855 51.2623 232.291 50.9119C232.726 50.5616 233.048 50.0952 233.257 49.5128C233.47 48.9304 233.576 48.2888 233.576 47.5881C233.576 46.892 233.47 46.2528 233.257 45.6705C233.048 45.0833 232.726 44.6122 232.291 44.2571C231.855 43.902 231.306 43.7244 230.643 43.7244C229.975 43.7244 229.422 43.902 228.981 44.2571C228.546 44.6122 228.221 45.0833 228.008 45.6705C227.8 46.2528 227.696 46.892 227.696 47.5881C227.696 48.2888 227.8 48.9304 228.008 49.5128C228.221 50.0952 228.546 50.5616 228.981 50.9119C229.422 51.2623 229.975 51.4375 230.643 51.4375ZM242.687 53.2202C241.631 53.2202 240.722 52.9811 239.96 52.5028C239.202 52.0199 238.62 51.3546 238.212 50.5071C237.805 49.6596 237.602 48.6889 237.602 47.5952C237.602 46.4872 237.81 45.5095 238.227 44.6619C238.643 43.8097 239.23 43.1444 239.988 42.6662C240.746 42.188 241.638 41.9489 242.665 41.9489C243.494 41.9489 244.233 42.1027 244.881 42.4105C245.53 42.7135 246.053 43.1397 246.451 43.6889C246.853 44.2382 247.093 44.8797 247.168 45.6136H245.102C244.988 45.1023 244.728 44.6619 244.32 44.2926C243.918 43.9233 243.378 43.7386 242.701 43.7386C242.109 43.7386 241.591 43.8949 241.146 44.2074C240.705 44.5152 240.362 44.9555 240.116 45.5284C239.87 46.0966 239.746 46.7689 239.746 47.5455C239.746 48.3409 239.867 49.0275 240.109 49.6051C240.35 50.1828 240.691 50.6302 241.131 50.9474C241.576 51.2647 242.1 51.4233 242.701 51.4233C243.103 51.4233 243.468 51.3499 243.795 51.2031C244.126 51.0516 244.403 50.8362 244.626 50.5568C244.853 50.2775 245.012 49.9413 245.102 49.5483H247.168C247.093 50.2538 246.863 50.8835 246.479 51.4375C246.096 51.9915 245.582 52.4271 244.938 52.7443C244.299 53.0616 243.549 53.2202 242.687 53.2202ZM249.439 53V42.0909H251.563V53H249.439ZM250.512 40.4077C250.142 40.4077 249.825 40.2846 249.56 40.0384C249.3 39.7874 249.169 39.4891 249.169 39.1435C249.169 38.7931 249.3 38.4948 249.56 38.2486C249.825 37.9976 250.142 37.8722 250.512 37.8722C250.881 37.8722 251.196 37.9976 251.456 38.2486C251.721 38.4948 251.854 38.7931 251.854 39.1435C251.854 39.4891 251.721 39.7874 251.456 40.0384C251.196 40.2846 250.881 40.4077 250.512 40.4077ZM259.121 53.2202C258.047 53.2202 257.121 52.9905 256.344 52.5312C255.573 52.0672 254.976 51.4162 254.555 50.5781C254.138 49.7353 253.93 48.7481 253.93 47.6165C253.93 46.4991 254.138 45.5142 254.555 44.6619C254.976 43.8097 255.563 43.1444 256.316 42.6662C257.074 42.188 257.959 41.9489 258.972 41.9489C259.588 41.9489 260.184 42.0507 260.762 42.2543C261.34 42.4579 261.858 42.7775 262.317 43.2131C262.777 43.6487 263.139 44.2145 263.404 44.9105C263.669 45.6018 263.802 46.4422 263.802 47.4318V48.1847H255.13V46.5938H261.721C261.721 46.035 261.607 45.5402 261.38 45.1094C261.153 44.6738 260.833 44.3305 260.421 44.0795C260.014 43.8286 259.536 43.7031 258.987 43.7031C258.39 43.7031 257.869 43.8499 257.424 44.1435C256.984 44.4323 256.643 44.8111 256.401 45.2798C256.165 45.7438 256.046 46.2481 256.046 46.7926V48.0355C256.046 48.7647 256.174 49.3849 256.43 49.8963C256.69 50.4077 257.052 50.7983 257.516 51.0682C257.98 51.3333 258.522 51.4659 259.143 51.4659C259.545 51.4659 259.912 51.4091 260.244 51.2955C260.575 51.1771 260.862 51.0019 261.103 50.7699C261.344 50.5379 261.529 50.2514 261.657 49.9105L263.667 50.2727C263.506 50.8646 263.217 51.383 262.8 51.8281C262.388 52.2685 261.87 52.6117 261.245 52.858C260.625 53.0994 259.917 53.2202 259.121 53.2202ZM271.25 42.0909V43.7955H265.292V42.0909H271.25ZM266.89 39.4773H269.013V49.7969C269.013 50.2088 269.075 50.5189 269.198 50.7273C269.321 50.9309 269.48 51.0705 269.674 51.1463C269.873 51.2173 270.088 51.2528 270.32 51.2528C270.49 51.2528 270.64 51.241 270.767 51.2173C270.895 51.1937 270.995 51.1747 271.066 51.1605L271.449 52.9148C271.326 52.9621 271.151 53.0095 270.924 53.0568C270.696 53.1089 270.412 53.1373 270.071 53.142C269.513 53.1515 268.992 53.0521 268.509 52.8438C268.026 52.6354 267.635 52.3134 267.337 51.8778C267.039 51.4422 266.89 50.8954 266.89 50.2372V39.4773ZM274.942 57.0909C274.625 57.0909 274.336 57.0649 274.075 57.0128C273.815 56.9654 273.621 56.9134 273.493 56.8565L274.004 55.1165C274.393 55.2206 274.738 55.2656 275.041 55.2514C275.344 55.2372 275.612 55.1236 275.844 54.9105C276.08 54.6974 276.289 54.3494 276.469 53.8665L276.732 53.142L272.74 42.0909H275.013L277.776 50.5568H277.889L280.652 42.0909H282.932L278.436 54.456C278.228 55.0241 277.963 55.5047 277.641 55.8977C277.319 56.2955 276.935 56.5938 276.49 56.7926C276.045 56.9915 275.529 57.0909 274.942 57.0909Z" fill="#27AAE1"/>
<defs>
<filter id="filter0_d_0_1" x="0" y="0" width="326" height="99" filterUnits="userSpaceOnUse" color-interpolation-filters="sRGB">
<feFlood flood-opacity="0" result="BackgroundImageFix"/>
<feColorMatrix in="SourceAlpha" type="matrix" values="0 0 0 0 0 0 0 0 0 0 0 0 0 0 0 0 0 0 127 0" result="hardAlpha"/>
<feOffset dy="4"/>
<feGaussianBlur stdDeviation="8.5"/>
<feComposite in2="hardAlpha" operator="out"/>
<feColorMatrix type="matrix" values="0 0 0 0 0 0 0 0 0 0 0 0 0 0 0 0 0 0 0.25 0"/>
<feBlend mode="normal" in2="BackgroundImageFix" result="effect1_dropShadow_0_1"/>
<feBlend mode="normal" in="SourceGraphic" in2="effect1_dropShadow_0_1" result="shape"/>
</filter>
</defs>
</svg>
