<svg width="61" height="53" viewBox="0 0 61 53" fill="none" xmlns="http://www.w3.org/2000/svg">
<path d="M52.232 37.9853C61.372 30.9095 63.0513 17.7162 55.9754 8.57624C48.8996 -0.563682 35.7063 -2.24301 26.5663 4.83285C18.8275 10.824 16.4379 21.2001 20.1833 29.7874C20.0086 29.8917 19.8371 30.0051 19.6725 30.1325L2.75506 43.2295C0.497301 44.9774 0.082524 48.236 1.83042 50.4938C3.57831 52.7515 6.83692 53.1663 9.09467 51.4184L26.0121 38.3214C26.1767 38.194 26.3294 38.0564 26.4717 37.9153C33.8494 43.6906 44.4932 43.9765 52.232 37.9853ZM27.9047 30.3078C22.9983 23.9701 24.1628 14.8211 30.5005 9.91462C36.8382 5.00816 45.9872 6.17271 50.8937 12.5104C55.8001 18.8481 54.6356 27.9971 48.2979 32.9036C41.9602 37.81 32.8112 36.6455 27.9047 30.3078Z" fill="#27AAE1"/>
</svg>
