<svg width="34" height="34" viewBox="0 0 34 34" fill="none" xmlns="http://www.w3.org/2000/svg">
<path d="M16.8628 3.6163C21.1943 3.6163 21.7127 3.63314 23.4185 3.71731C25.0073 3.78465 25.8602 4.05402 26.4288 4.27287C27.1814 4.5759 27.7332 4.92944 28.2851 5.50183C28.8537 6.07422 29.2049 6.61294 29.506 7.37051C29.7234 7.9429 29.9909 8.80149 30.0578 10.4008C30.1415 12.118 30.1582 12.6399 30.1582 17.0001C30.1582 21.3604 30.1415 21.8823 30.0578 23.5995C29.9909 25.1988 29.7234 26.0574 29.506 26.6298C29.2049 27.3873 28.8537 27.9429 28.2851 28.4985C27.7165 29.0708 27.1814 29.4244 26.4288 29.7274C25.8602 29.9463 25.0073 30.2156 23.4185 30.283C21.7127 30.3671 21.1943 30.384 16.8628 30.384C12.5313 30.384 12.0129 30.3671 10.3071 30.283C8.71833 30.2156 7.86542 29.9463 7.29681 29.7274C6.54424 29.4244 5.99235 29.0708 5.44047 28.4985C4.87186 27.9261 4.52066 27.3873 4.21963 26.6298C4.00222 26.0574 3.73465 25.1988 3.66776 23.5995C3.58414 21.8823 3.5674 21.3604 3.5674 17.0001C3.5674 12.6399 3.58414 12.118 3.66776 10.4008C3.73465 8.80149 4.00222 7.9429 4.21963 7.37051C4.52066 6.61294 4.87186 6.05738 5.44047 5.50183C6.00908 4.92944 6.54424 4.5759 7.29681 4.27287C7.86542 4.05402 8.71833 3.78465 10.3071 3.71731C12.0296 3.63314 12.5313 3.6163 16.8628 3.6163ZM16.8628 0.687012C12.4644 0.687012 11.9126 0.703847 10.1733 0.788022C8.45075 0.872197 7.26336 1.14156 6.24322 1.5456C5.17289 1.96647 4.26981 2.52203 3.36673 3.43112C2.46364 4.34021 1.91176 5.2493 1.49366 6.32674C1.09229 7.37051 0.824717 8.54896 0.741098 10.283C0.65748 12.017 0.640747 12.5725 0.640747 17.017C0.640747 21.4446 0.65748 22.0001 0.741098 23.751C0.824717 25.485 1.09229 26.6803 1.49366 27.7072C1.91176 28.7847 2.46364 29.6937 3.36673 30.6028C4.26981 31.5119 5.17289 32.0675 6.24322 32.4884C7.28009 32.8924 8.45075 33.1618 10.1733 33.2459C11.8958 33.3301 12.4477 33.3469 16.8628 33.3469C21.2779 33.3469 21.813 33.3301 23.5523 33.2459C25.2748 33.1618 26.4622 32.8924 27.4824 32.4884C28.5527 32.0675 29.4558 31.5119 30.3589 30.6028C31.262 29.6937 31.8138 28.7847 32.2319 27.7072C32.6333 26.6634 32.9009 25.485 32.9845 23.751C33.0681 22.017 33.0848 21.4614 33.0848 17.017C33.0848 12.5725 33.0681 12.0338 32.9845 10.283C32.9009 8.54896 32.6333 7.35368 32.2319 6.32674C31.8138 5.2493 31.262 4.34021 30.3589 3.43112C29.4558 2.52203 28.5527 1.96647 27.4824 1.5456C26.4455 1.14156 25.2748 0.872197 23.5523 0.788022C21.813 0.703847 21.2611 0.687012 16.8628 0.687012Z" fill="#929292"/>
<path d="M16.8628 8.61621C12.2638 8.61621 8.53436 12.3704 8.53436 17C8.53436 21.6297 12.2638 25.3839 16.8628 25.3839C21.4618 25.3839 25.1912 21.6297 25.1912 17C25.1912 12.3704 21.4618 8.61621 16.8628 8.61621ZM16.8628 22.4378C13.886 22.4378 11.461 19.9967 11.461 17C11.461 14.0034 13.886 11.5623 16.8628 11.5623C19.8396 11.5623 22.2646 14.0034 22.2646 17C22.2646 20.0135 19.8563 22.4378 16.8628 22.4378Z" fill="#929292"/>
<path d="M25.5257 10.2495C26.5971 10.2495 27.4657 9.37515 27.4657 8.29661C27.4657 7.21808 26.5971 6.34375 25.5257 6.34375C24.4543 6.34375 23.5858 7.21808 23.5858 8.29661C23.5858 9.37515 24.4543 10.2495 25.5257 10.2495Z" fill="#929292"/>
</svg>
