<svg width="36" height="36" viewBox="0 0 36 36" fill="none" xmlns="http://www.w3.org/2000/svg">
<path d="M36 35.8587V22.7274C36 16.2796 34.6119 11.3301 27.1364 11.3301C23.5408 11.3301 21.1326 13.3166 20.1459 15.2021H20.0456V11.9025H12.9547V35.8419H20.3299V24.0068C20.3299 20.8755 20.9152 17.8621 24.7616 17.8621C28.5579 17.8621 28.6081 21.4311 28.6081 24.2089V35.8587H36Z" fill="#929292"/>
<path d="M4.60952 0C2.23475 0 0.328247 1.93603 0.328247 4.30976C0.328247 6.70034 2.23475 8.61953 4.60952 8.61953C6.96757 8.61953 8.8908 6.6835 8.8908 4.30976C8.8908 1.93603 6.9843 0 4.60952 0Z" fill="#929292"/>
<path d="M8.30547 11.9023H0.913574V35.8417H8.30547V11.9023Z" fill="#929292"/>
</svg>
