<svg width="32" height="26" viewBox="0 0 32 26" fill="none" xmlns="http://www.w3.org/2000/svg">
<path d="M32 3.07583C30.8172 3.60162 29.5556 3.95652 28.2283 4.11426C29.5819 3.29929 30.6201 2.01112 31.1064 0.48635C29.8448 1.23559 28.4386 1.78766 26.9405 2.07685C25.7446 0.80182 24.0361 0 22.1569 0C18.5298 0 15.5992 2.94439 15.5992 6.55915C15.5992 7.07179 15.6517 7.57128 15.77 8.05763C10.3162 7.7816 5.48008 5.16582 2.24723 1.19616C1.68213 2.16886 1.35359 3.28615 1.35359 4.49545C1.35359 6.76946 2.51006 8.78059 4.27105 9.9636C3.19343 9.92416 2.18152 9.63498 1.30103 9.14863C1.30103 9.17492 1.30103 9.20121 1.30103 9.2275C1.30103 12.4085 3.5614 15.0637 6.5577 15.6552C6.00575 15.7998 5.42752 15.8918 4.823 15.8918C4.40247 15.8918 3.99507 15.8524 3.58768 15.7735C4.42875 18.3761 6.84682 20.2821 9.7117 20.3347C7.46447 22.0961 4.63901 23.1476 1.56386 23.1476C1.03819 23.1476 0.512526 23.1213 0 23.0556C2.90431 24.9221 6.34743 26 10.0534 26C22.1175 26 28.7146 15.997 28.7146 7.33468C28.7146 7.0455 28.7146 6.76946 28.7014 6.48028C30.0156 5.54702 31.1195 4.40344 32 3.07583Z" fill="#929292"/>
</svg>
