<svg width="141" height="161" viewBox="0 0 141 161" fill="none" xmlns="http://www.w3.org/2000/svg">
<g clip-path="url(#clip0_93_19)">
<path d="M70.4999 161C71.4668 160.014 73.8906 157.84 76.4756 155.902C81.6188 152.058 88.8165 149.596 96.4036 146.939C102.332 144.866 108.462 142.592 114.163 139.674C120.864 136.253 125.987 132.235 129.827 127.391C134.433 121.582 137.233 114.605 138.395 106.059C139.697 96.4658 138.831 84.7531 135.823 71.2425C131.002 49.588 134.192 35.7017 136.3 26.5046C136.918 23.8079 137.502 21.2654 137.69 19.1791C137.717 18.9242 137.73 18.6693 137.73 18.4211C137.73 13.9399 134.051 10.2906 129.532 10.2906C127.276 10.2906 124.906 10.9547 122.865 11.4981C121.703 11.8067 120.488 12.1622 119.246 12.5245C114.102 14.0204 107.697 15.8786 100.963 15.8786C91.4149 15.8786 82.8811 12.0951 74.8911 4.57508C73.2998 3.07913 71.3191 0.892208 70.5066 0C69.6875 0.892208 67.7068 3.07913 66.1155 4.57508C58.1255 12.0951 49.5916 15.8786 40.0439 15.8786C33.3095 15.8786 26.9041 14.0204 21.7609 12.5245C20.5188 12.1622 19.3035 11.8067 18.1419 11.4981C16.0941 10.9547 13.7306 10.2906 11.4746 10.2906C6.95593 10.2906 3.2765 13.9399 3.2765 18.4211C3.2765 18.676 3.28993 18.9309 3.31007 19.1858C3.49807 21.2654 4.08221 23.8146 4.69993 26.5113C6.80821 35.7018 9.9975 49.5947 5.17664 71.2492C2.16864 84.7598 1.3025 96.4725 2.60507 106.065C3.76664 114.612 6.5665 121.595 11.1725 127.398C15.0131 132.241 20.1361 136.26 26.8369 139.681C32.5441 142.592 38.6742 144.873 44.6029 146.946C52.1901 149.603 59.3945 152.064 64.5309 155.908C67.1092 157.84 69.5331 160.014 70.4999 161Z" fill="#DA251C"/>
<path d="M70.4998 155.144C69.9157 154.634 68.4855 153.359 67.2702 152.44C61.8787 148.341 54.0028 145.564 46.0665 142.787C34.3971 138.708 22.3248 134.355 14.6571 124.674C10.5546 119.502 8.05693 113.223 7.00279 105.475C5.77408 96.3988 6.61336 85.2026 9.51393 72.1951C14.5496 49.5746 11.2261 35.1047 9.0305 25.5319C8.44636 22.9828 7.89579 20.5745 7.72793 18.7833C7.7145 18.6626 7.7145 18.5486 7.7145 18.4278C7.7145 16.3751 9.39979 14.7047 11.4678 14.7047C12.0519 14.7047 13.1329 14.8791 13.6902 14.9797C15.5702 15.3151 17.9538 16.0128 20.5052 16.7574C25.9236 18.3339 32.6648 20.286 40.0371 20.286C50.7799 20.286 60.5895 15.9994 69.1637 7.77497C69.6135 7.34564 70.1104 6.86264 70.4931 6.45343C70.8758 6.86264 71.3727 7.34564 71.8225 7.78168C80.3967 16.0061 90.2129 20.2927 100.949 20.2927C108.321 20.2927 115.063 18.3339 120.481 16.7641C123.039 16.0195 125.423 15.3218 127.296 14.9864C127.86 14.8858 128.934 14.7114 129.518 14.7114C131.586 14.7114 133.272 16.3818 133.272 18.4345C133.272 18.5553 133.265 18.6693 133.252 18.7901C133.09 20.5812 132.54 22.9895 131.949 25.5386C129.753 35.1181 126.43 49.588 131.466 72.2018C134.359 85.2093 135.205 96.4055 133.977 105.482C132.929 113.23 130.425 119.509 126.322 124.681C118.648 134.361 106.582 138.715 94.9129 142.794C86.9767 145.571 79.1008 148.348 73.7092 152.447C72.5141 153.359 71.0907 154.634 70.4998 155.144ZM70.4998 152.192C76.7038 146.819 85.2175 143.84 94.1878 140.701C105.562 136.723 117.319 132.476 124.59 123.306C128.437 118.456 130.794 112.526 131.788 105.18C132.983 96.3585 132.15 85.4239 129.31 72.6714C124.167 49.5746 127.558 34.8096 129.8 25.0422C130.371 22.5736 130.908 20.2189 131.056 18.5754C131.063 18.5284 131.063 18.4748 131.063 18.4211C131.063 17.5826 130.378 16.905 129.532 16.905C127.471 17.0258 124.51 17.8844 121.119 18.8706C115.566 20.4806 108.65 22.4931 100.963 22.4931C89.7228 22.4931 79.7319 18.1662 70.5065 9.5661C61.2744 18.1595 51.2835 22.4863 40.0438 22.4931C32.3492 22.4931 25.4402 20.4873 19.8875 18.8706C16.4968 17.8844 13.5358 17.0258 11.4745 16.905C10.6285 16.905 9.94365 17.5826 9.94365 18.4211C9.94365 18.4748 9.94365 18.5217 9.95036 18.5754C10.0981 20.2189 10.6352 22.5668 11.2059 25.0422C13.4485 34.8096 16.8325 49.5746 11.6894 72.6714C8.84922 85.4239 8.01665 96.3585 9.21179 105.18C10.2055 112.526 12.5622 118.456 16.4095 123.306C23.6811 132.483 35.4378 136.723 46.8118 140.701C55.7821 143.84 64.2958 146.819 70.4998 152.192ZM61.7645 51.5871C61.7645 53.3178 62.6508 53.8948 62.8254 54.0088L57.9844 56.1957C58.1522 55.9274 59.0452 54.5522 59.0452 52.8214V44L52.7607 46.8309V55.6389C52.7607 57.3697 53.6469 57.9466 53.8215 58.0606L48.9805 60.2476C49.1551 59.9792 50.0414 58.604 50.0414 56.8733V37.835C50.0414 36.1043 49.1551 35.5341 48.9805 35.4133L53.8215 33.2398C53.6537 33.5081 52.7607 34.8834 52.7607 36.6141V44.5434L59.0452 41.7191V33.7832C59.0452 32.0524 58.1589 31.4755 57.9844 31.3615L62.8254 29.1813C62.6508 29.4496 61.7645 30.8248 61.7645 32.5556V51.5871ZM76.7844 33.3673C75.4751 36.3458 71.9501 34.0515 68.6399 38.3985V28.2555L69.8619 27.7054C73.4742 26.082 75.2267 28.7922 75.5624 29.4161L74.5351 23.9219L64.8598 28.2689C65.0344 28.383 65.9207 28.9599 65.9207 30.6906V49.7222C65.9207 51.4529 65.0344 52.8281 64.8598 53.0965L76.2674 47.9646L76.8985 41.4642C76.5695 42.4168 74.6089 47.0456 70.9967 48.669L68.6332 49.7289V40.2299C71.2787 36.8221 76.9522 39.2236 76.7844 33.3673ZM39.7014 61.2203C39.7014 63.1321 38.7681 64.6214 38.5868 64.9166L43.5419 62.6894C43.3606 62.5619 42.5549 61.8106 42.5549 59.9054L42.5482 37.5533C46.6238 35.581 47.5302 40.1024 47.8794 40.8001L46.9595 33.6826L34.6724 39.2102L34.1957 46.7437C34.5448 45.7374 35.9481 40.3171 39.6879 38.8346L39.7014 61.2203ZM101.694 112.338V91.1998C101.694 89.3081 102.668 87.8121 102.849 87.5169L98.7737 89.355L94.4564 104.892L89.3938 93.5678L85.2376 95.4395C85.6338 95.4395 87.7152 96.3921 87.7152 98.4582V118.63C87.7152 120.522 86.7484 122.025 86.5604 122.313L90.9179 120.348C90.7299 120.227 89.7564 119.596 89.7564 117.704V102.081L94.3557 111.929L98.7334 96.3585V113.673C98.7334 115.564 97.7598 117.06 97.5785 117.356L102.863 114.981C102.668 114.853 101.694 114.23 101.694 112.338ZM77.8184 114.136C82.0215 114.458 84.8147 126.935 90.8709 124.909C81.0748 131.396 79.6984 113.317 74.7029 115.424V124.473C74.7029 126.365 75.6698 126.989 75.8645 127.116L70.5737 129.511C70.7617 129.216 71.7352 127.713 71.7352 125.828V104.684C71.7352 102.799 70.7684 102.168 70.5737 102.04L75.7705 99.706C80.8734 97.4117 83.3107 102.175 83.3107 105.354C83.3107 107.823 82.6392 112.519 77.8184 114.136ZM74.7029 113.619C79.0001 112.19 79.9267 109.661 79.9267 105.79C79.9267 102.497 78.4092 100.518 76.1129 101.37L74.7029 102V113.619ZM64.5174 132.221C64.6718 131.919 65.4842 130.383 65.1217 128.465L64.3159 124.775L58.4745 127.405L57.6889 131.812C57.3398 134.053 58.1589 134.858 58.3134 135.019L54.0229 136.944C54.2647 136.609 55.1711 135.025 55.5269 132.785L60.3545 105.951C60.6567 104.435 60.8715 103.235 62.7448 102.416L68.0222 127.163C68.5056 129.176 69.4591 129.773 69.7008 129.893L64.5174 132.221ZM63.7721 122.32L61.3482 111.459L58.9915 124.473L63.7721 122.32ZM113.001 98.532C117.802 86.6381 120.421 78.0381 116.54 77.6557C115.868 77.5886 114.727 77.9978 114.27 79.903C116.64 79.0779 116.258 85.0416 112.034 96.0164L108.684 88.0603C108.174 86.4034 109.006 84.9275 109.261 84.6391L103.944 87.0339C104.172 87.1413 105.018 87.8054 105.689 89.4154L110.04 100.088V108.608C110.04 110.5 109.073 112.002 108.879 112.291L114.17 109.923C113.982 109.795 113.008 109.171 113.008 107.28V98.532H113.001ZM93.1471 55.5383C93.1471 53.6466 94.1207 52.1506 94.3087 51.8554L89.0178 54.2369C89.2058 54.3643 90.1794 54.9882 90.1794 56.88V78.0448C90.1794 79.9365 89.2058 81.4258 89.0178 81.7209L94.3087 79.3395C94.1207 79.212 93.1471 78.5881 93.1471 76.6964V55.5383ZM102.937 47.7902C107.643 45.6167 109.134 51.198 109.134 58.9327C109.134 66.6674 107.643 73.624 102.937 75.7975C98.2365 77.971 96.7392 72.3896 96.7392 64.6549C96.7392 56.9202 98.2365 49.957 102.937 47.7902ZM102.923 73.8588C105.206 72.8458 105.931 67.1504 105.931 60.5226C105.931 53.8948 105.206 48.8434 102.923 49.8563C100.64 50.8693 99.9151 56.5647 99.9151 63.1925C99.9151 69.8136 100.64 74.865 102.923 73.8588ZM79.9602 82.6266C79.9602 84.5183 78.9934 86.021 78.8054 86.3094L84.0962 83.928C83.9082 83.8005 82.9347 83.1766 82.9347 81.2849L82.9279 58.8321C86.6141 56.9471 87.7287 60.4958 88.0845 61.18L86.9699 55.1559L75.4952 60.3281L74.9849 67.1974C75.3475 66.1911 76.7575 61.6093 79.9669 60.1738L79.9602 82.6266ZM58.8707 96.3384L63.8057 68.7202C64.1414 66.6808 65.0075 65.2251 65.2358 64.9166L61.0259 66.815C61.1737 66.9559 61.9592 67.6737 61.6235 69.7063L58.6491 88.6305L55.4195 72.497C55.0704 70.7662 55.8492 69.3575 55.9969 69.0757L50.9747 71.3364C51.2029 71.4438 52.2235 72.0475 52.5727 73.785L55.6344 88.4695C55.8895 89.8716 56.8899 96.5732 58.8707 96.3384ZM37.3916 104.938C37.5461 104.663 38.3182 103.248 37.9691 101.517L37.2507 98.0691L32.2082 100.323L31.4965 104.429C31.1608 106.468 31.9396 107.179 32.0941 107.327L28.0521 109.151C28.2804 108.843 29.1465 107.387 29.4822 105.348L33.8196 80.0774C34.0412 78.7827 34.7261 77.8972 35.9816 77.4746L40.7286 100.296C41.0778 102.027 42.0984 102.631 42.3267 102.745L37.3916 104.938ZM36.7806 95.795L34.6925 85.652L32.6648 97.6465L36.7806 95.795ZM72.3999 89.2007C72.5544 88.9257 73.3265 87.5102 72.9774 85.7795L72.2589 82.3314L67.2165 84.5854L66.5048 88.6909C66.1691 90.7302 66.9479 91.4413 67.1024 91.5822L63.0604 93.4069C63.2887 93.0983 64.1548 91.6426 64.4905 89.6032L68.8279 64.3329C69.0495 63.0382 69.7344 62.1527 70.9899 61.7301L75.7369 84.5518C76.0861 86.2826 77.1067 86.8863 77.3349 86.9937L72.3999 89.2007ZM71.7889 80.0506L69.7008 69.9076L67.6731 81.9021L71.7889 80.0506ZM54.3251 90.7503C51.5387 91.1663 52.5995 95.9963 47.1878 98.7064V76.2268C47.1878 74.3351 48.1614 72.8391 48.3494 72.5439L43.0585 74.9053C43.2465 75.0327 44.2201 75.6633 44.2201 77.5483V98.7064C44.2201 100.598 43.2465 102.101 43.0585 102.389L52.9487 97.9417C52.7137 96.1506 53.0158 93.0916 54.3251 90.7503ZM20.7134 81.7411C23.6072 81.7075 25.3664 85.4306 22.7209 87.4163C23.7549 87.6108 24.6614 87.0742 24.9635 86.5778C25.1515 87.3626 26.1251 88.3488 26.6421 88.3286C26.2728 87.3761 25.0441 83.2102 27.7298 79.4938C26.4406 79.5407 25.2186 80.3994 24.6211 81.3922C23.2178 79.8359 21.5594 79.6548 20.6731 79.6548C16.7788 79.6548 14.3952 82.8882 14.3952 86.8058C14.3952 95.9694 24.8561 98.257 24.8561 106.622C24.8561 108.843 23.5132 112.123 20.4515 112.264C16.9534 112.432 16.1208 109.782 16.1208 107.883C16.1208 104.831 18.0276 104.06 19.1556 103.577C16.9735 102.913 13.3075 104.388 13.3075 108.125C13.3075 112.74 17.1951 114.525 20.2904 114.27C24.3256 113.941 27.3941 110.298 27.3941 105.442C27.3941 95.5602 16.8191 92.1457 16.8191 86.1417C16.8056 83.2504 18.7058 81.7612 20.7134 81.7411ZM114.438 51.4663C116.802 57.6112 122.059 65.5471 124.04 67.2712C120.481 51.3926 123.596 37.5533 122.905 35.3932C122.207 33.213 119.81 33.6691 119.091 36.0707C122.247 35.0041 119.528 47.2468 120.891 57.9734C120.306 57.2623 116.358 49.8899 114.438 42.8126L111.47 44.1476C111.658 44.275 112.632 44.9056 112.632 46.7974V67.942C112.632 69.8338 111.658 71.3364 111.47 71.6383L115.6 69.7801C115.412 69.6526 114.438 69.0221 114.438 67.1303V51.4663Z" fill="white"/>
</g>
<defs>
<clipPath id="clip0_93_19">
<rect width="141" height="161" fill="white"/>
</clipPath>
</defs>
</svg>
