<svg width="84" height="86" viewBox="0 0 84 86" fill="none" xmlns="http://www.w3.org/2000/svg">
<path d="M66.9429 44.3636C66.5122 44.317 66.1064 44.4134 65.7693 44.5129C65.7537 44.516 65.7412 44.5191 65.7318 44.5222L65.5133 44.3387C65.3011 44.1615 65.1013 43.9967 64.9702 43.8381C64.5114 43.2721 64.09 42.6813 63.6187 42.0158C62.904 41.0082 61.8771 40.5915 60.7222 40.8434C60.6878 40.8496 60.6535 40.8559 60.6161 40.859C60.5099 40.8745 60.3695 40.8932 60.1947 40.9398C60.1884 40.9367 60.1853 40.9305 60.1791 40.9243C59.5579 40.3614 58.8525 40.0193 58.222 39.7519C58.0316 39.671 57.7101 39.5342 57.629 39.4472C56.7956 38.5205 55.7937 38.0167 54.9228 37.6435C54.4921 37.46 54.0614 37.1335 53.6056 36.7883C53.4371 36.6608 53.2654 36.5333 53.0938 36.409C52.4633 35.958 51.6923 35.4605 50.7497 35.1837C49.395 34.7888 48.2651 34.0425 47.2944 32.8981C45.1376 30.3605 43.5676 27.7639 42.497 24.959C41.6792 22.8164 40.8177 20.6551 39.975 18.5312C39.5848 17.5547 38.9949 16.3108 37.8525 15.3779C37.1222 14.7809 36.3606 14.1278 35.4554 13.3224C35.0652 12.9741 34.6782 12.6196 34.2943 12.2651C33.8417 11.8484 33.3891 11.4286 32.9271 11.0243C32.1281 10.3246 31.226 9.98567 30.324 10.0541C28.7384 10.0727 27.2527 10.5143 25.6546 11.441C24.9804 11.8297 24.4529 12.3428 24.0408 13.0052C23.4884 13.8946 22.9297 14.7404 22.3772 15.5179C21.3846 16.9203 21.0475 18.4845 21.3722 20.1638C21.6812 21.7653 21.9902 23.3326 22.3616 24.8874C22.5895 25.8421 22.7892 26.775 22.7299 27.6986C22.7143 27.9443 22.6862 28.19 22.6581 28.4356C22.6238 28.7373 22.5894 29.0389 22.5738 29.3406C22.4833 30.9048 22.6581 32.4036 22.8392 33.6662C23.0483 35.0998 23.2262 36.636 23.1388 38.1659C23.1263 38.3992 23.0639 38.6697 22.9983 38.9589C22.9453 39.189 22.8922 39.4192 22.8579 39.6524C22.7955 40.0473 22.7986 40.4174 22.8672 40.7594C22.9265 41.0393 23.0358 41.2694 23.1169 41.4343C23.1419 41.484 23.1669 41.5338 23.1856 41.5866C23.2699 41.8043 23.3635 42.022 23.4572 42.2397C23.6351 42.647 23.8036 43.0327 23.8505 43.3685C23.9815 44.2921 23.994 45.2437 24.0096 46.2481L24.0159 46.615C24.0315 47.6008 23.9316 48.5524 23.7194 49.4418C23.582 50.014 23.5196 50.5209 23.5227 50.9935C23.5383 52.6759 24.1158 54.2401 25.2425 55.6457C25.4017 55.8447 25.5672 56.0375 25.7357 56.2272C25.8481 56.3578 25.9636 56.4884 26.0759 56.6221C26.1508 56.7123 26.1664 56.731 26.0978 56.8865C25.9323 57.2721 25.7607 57.6701 25.6109 58.093C25.1177 59.4986 25.5952 60.671 26.9249 61.3116C27.237 61.464 27.5429 61.5728 27.8363 61.6785C28.008 61.7407 28.1797 61.8029 28.3482 61.8713L28.5948 61.9739C28.9225 62.1108 29.2347 62.2383 29.5093 62.3875C29.4095 62.7483 29.3252 63.0779 29.2628 63.4355C29.0287 64.838 29.759 65.9731 31.1293 66.3213C31.4914 66.4146 31.8472 66.4551 32.1593 66.4893C32.2748 66.5017 32.3903 66.5141 32.5058 66.5328C32.8117 66.5763 33.1207 66.6074 33.4297 66.6416C34.0633 66.7101 34.6626 66.7754 35.2119 66.9184C36.2201 67.1858 37.2002 67.5528 38.2396 67.9446L38.6547 68.1001C39.4569 68.3986 40.5368 68.7189 41.7666 68.5355C42.0694 68.4888 42.3846 68.4608 42.6999 68.4453C43.9671 68.3893 44.3729 68.7749 44.6663 69.5088C44.7974 69.8384 44.9535 70.1401 45.1033 70.4168C45.509 71.1756 46.099 71.6887 46.8044 71.9499C47.6877 70.8678 48.5648 69.798 49.4294 68.7438C53.9022 63.2863 58.1253 58.1303 62.2266 52.7847C64.3117 50.0637 66.1095 47.2961 67.5828 44.5378C67.3206 44.4289 67.0802 44.3823 66.9398 44.3667L66.9429 44.3636Z" fill="#4FB983"/>
<path d="M22.9484 59.6572C22.8704 58.8984 22.9671 58.0899 23.2543 57.2658C23.2637 57.2378 23.273 57.213 23.2824 57.185C22.371 56.0468 21.7374 54.8247 21.3753 53.5248C19.9863 52.5297 18.613 51.5191 17.2677 50.4711C13.622 47.6288 11.1406 43.8505 10.3572 39.0926C9.40205 33.2992 13.3567 26.4361 19.6305 24.1224C19.3777 22.9687 19.1498 21.8119 18.922 20.6364C18.6504 19.234 18.7222 17.8595 19.1155 16.5596C19.0718 16.5596 19.0281 16.5534 18.9813 16.5534C6.36816 16.3264 -2.71166 31.3836 1.09943 42.249C3.3686 48.7203 7.96001 53.1237 13.4816 56.6843C17.2677 59.1223 19.8459 60.0148 23.7225 62.3129C22.9235 61.3986 22.7892 60.5559 22.9453 59.6541L22.9484 59.6572Z" fill="#27AAE1"/>
<path d="M83.055 20.453C82.696 17.4366 81.8096 14.6254 80.3519 12.0599V12.0536C80.0242 11.4877 79.6653 10.9372 79.2845 10.393C79.1877 10.2562 79.091 10.1194 78.9911 9.98256C78.5947 9.44147 78.1795 8.90971 77.7269 8.3966C77.0434 7.62539 76.2974 6.88217 75.4796 6.17315C75.0707 5.81865 74.6462 5.47036 74.203 5.12829C73.6381 4.69293 73.0575 4.29799 72.4645 3.93416C71.2784 3.20959 70.0424 2.62807 68.7689 2.16473C68.1321 1.93461 67.4829 1.73247 66.8274 1.56144C64.861 1.04523 62.8197 0.777791 60.744 0.700048C60.0511 0.67517 59.3582 0.668952 58.659 0.681391C57.8444 0.696939 57.0484 0.749802 56.265 0.827545C56.1838 0.833765 56.1027 0.839984 56.0215 0.849313C55.3005 0.927056 54.5951 1.02968 53.9053 1.16029C53.8023 1.17894 53.7024 1.20071 53.6025 1.22248C51.3459 1.67961 49.2515 2.44149 47.3725 3.54855C47.3506 3.56099 47.3319 3.57343 47.31 3.58587C46.8294 3.87196 46.3643 4.17982 45.9117 4.51256C44.5571 5.50767 43.3366 6.71736 42.2692 8.15405C41.9227 8.62361 41.5918 9.11495 41.2766 9.63427C41.2329 9.70579 41.1892 9.77421 41.1455 9.84884C40.8271 10.3899 40.5212 10.9466 40.2372 11.5436C39.9407 12.1687 39.6879 12.8093 39.4506 13.4623C41.0456 14.7715 41.8415 16.4601 42.3004 17.6169L42.3753 17.8097C42.4315 17.9528 42.4908 18.0958 42.547 18.2389C42.575 18.1984 42.6031 18.1611 42.6281 18.1207C42.7061 18.0087 42.7811 17.8906 42.856 17.7755C43.0245 17.5236 43.1806 17.2562 43.3585 17.0167C43.3741 16.995 43.3928 16.9763 43.4116 16.9546C43.6051 16.7058 43.8173 16.4788 44.0233 16.2424C44.22 16.0154 44.4041 15.7729 44.6132 15.5583C44.7849 15.3841 44.9784 15.2349 45.1564 15.0701C45.2219 15.011 45.2874 14.9519 45.353 14.8928C45.5777 14.6938 45.7869 14.4761 46.0209 14.2895C46.1364 14.1993 46.2644 14.1278 46.3799 14.0407C46.5328 13.9381 46.6827 13.8293 46.8356 13.7267C47.0853 13.5556 47.3194 13.369 47.5816 13.2136C47.8531 13.0519 48.1465 12.9212 48.4275 12.7751C48.7146 12.6258 48.9862 12.4641 49.2858 12.3335C49.626 12.1842 49.9912 12.0692 50.347 11.9417C50.6061 11.8422 50.8621 11.7333 51.1305 11.6525C51.4176 11.5654 51.7298 11.5094 52.0263 11.4379C52.0887 11.4255 52.148 11.4068 52.2105 11.3944C52.5101 11.3228 52.8004 11.2358 53.1094 11.1798C53.7898 11.0554 54.4921 10.9683 55.2162 10.9124C55.7437 10.8719 56.2619 10.8502 56.7738 10.8408C57.7601 10.8253 58.7183 10.8719 59.6454 10.9683C59.6797 10.9714 59.7171 10.9715 59.7515 10.9777C60.2322 11.0305 60.7035 11.0989 61.1654 11.1829C61.6929 11.2762 62.2079 11.3975 62.7136 11.5312C62.8728 11.5716 63.0257 11.6214 63.1818 11.668C63.5282 11.7706 63.8716 11.8795 64.2087 12.0008C64.3772 12.0599 64.5426 12.122 64.7081 12.1874C65.0389 12.318 65.3604 12.4579 65.6757 12.6072C65.8161 12.6725 65.9597 12.7347 66.097 12.8062C66.5403 13.0301 66.9741 13.2664 67.3893 13.5276C67.8731 13.8324 68.3319 14.1714 68.7751 14.5227C68.8844 14.6098 68.9936 14.7 69.1028 14.7902C69.5367 15.1571 69.9612 15.5396 70.3514 15.9532C71.5281 17.1971 72.5082 18.6618 73.2666 20.3348C73.5413 20.9412 73.7692 21.5507 73.9752 22.1633C74.0345 22.3437 74.0875 22.5272 74.1437 22.7075C74.2811 23.1584 74.3997 23.6125 74.5027 24.0665C74.5432 24.2468 74.5869 24.4272 74.6213 24.6107C74.7399 25.2202 74.8366 25.8328 74.8959 26.4423V26.4485C75.0302 27.8199 75.0208 29.1944 74.8991 30.572C74.8991 30.5782 74.8991 30.5845 74.8991 30.5876C74.8429 31.2033 74.7586 31.8221 74.6619 32.4378C74.6306 32.6244 74.5963 32.811 74.5651 32.9976C74.4839 33.4578 74.3903 33.915 74.2873 34.3752C74.2467 34.5587 74.2061 34.739 74.1624 34.9225C74.0126 35.5413 73.8534 36.1602 73.6693 36.7759C73.4539 37.5036 73.2167 38.2188 72.967 38.9309C72.9389 39.0149 72.9046 39.0958 72.8734 39.1797C72.7704 39.4689 72.6611 39.7519 72.5519 40.038C72.4364 40.3459 72.3178 40.6537 72.196 40.9554C72.1835 40.9865 72.1711 41.0145 72.1586 41.0455C71.9713 41.5058 71.7778 41.9629 71.5749 42.4138C71.5125 42.5538 71.45 42.6937 71.3876 42.8305C71.3814 42.8461 71.372 42.8616 71.3658 42.8803C71.1254 43.4027 70.882 43.922 70.626 44.4351C68.875 47.946 66.7431 51.2516 64.346 54.38C58.4343 62.089 52.1636 69.5275 45.687 77.5257C44.9379 75.6785 44.5508 74.5092 44.0077 73.4208C43.8236 73.0508 43.6238 72.69 43.4209 72.3355C42.9059 71.9748 42.4471 71.5301 42.0632 70.9984C40.284 71.2471 38.7764 70.7869 37.7901 70.42L37.3719 70.2645C36.3887 69.8944 35.4679 69.5492 34.5814 69.316C34.2162 69.2196 33.7137 69.1667 33.1831 69.1076C37.5498 72.8766 40.5275 77.6625 41.7417 83.6798C41.8447 84.1867 42.06 84.6718 42.2723 85.3155C42.5813 85.0947 42.8029 84.9486 42.9995 84.8055C43.1057 84.7309 43.2149 84.6562 43.3023 84.5754C44.7631 83.2258 46.2113 81.8668 47.6534 80.5017C47.9624 80.2062 48.2714 79.9108 48.5804 79.6154C49.8071 78.443 51.0244 77.2644 52.2323 76.0734C52.4758 75.834 52.7192 75.5945 52.9627 75.352C59.2926 69.0672 65.3011 62.4871 70.5979 55.2601C70.7478 55.0548 70.8882 54.8465 71.038 54.6412V54.6537C71.5031 54.0037 71.9651 53.3507 72.4208 52.6977C72.5768 52.4707 72.7329 52.2436 72.889 52.0166C73.4445 51.2019 73.9908 50.3809 74.5183 49.5537C74.6088 49.4138 74.6962 49.2708 74.7836 49.1308C75.3548 48.2228 75.9135 47.3054 76.4441 46.3756C76.466 46.3352 76.4878 46.2948 76.5128 46.2543C77.5178 44.4911 78.4417 42.6906 79.2626 40.8465C79.2689 40.8279 79.2782 40.8123 79.2876 40.7937C79.3282 40.7035 79.3719 40.6102 79.4093 40.52C79.4249 40.4827 79.4374 40.4485 79.453 40.4112C80.1553 38.8003 80.7764 37.1553 81.3039 35.4698C81.3445 35.3361 81.3882 35.2055 81.4288 35.0718C81.435 35.0531 81.4382 35.0345 81.4444 35.0158C81.9969 33.1935 82.4338 31.3215 82.746 29.3965C82.746 29.3841 82.7491 29.3717 82.7522 29.3561C82.8896 28.4916 83.0144 27.624 83.0987 26.7408C83.2048 25.6493 83.2547 24.5765 83.2516 23.5254C83.2454 22.4743 83.1861 21.4481 83.0643 20.4405L83.055 20.453Z" fill="#27AAE1"/>
</svg>
