<svg width="315" height="138" viewBox="0 0 315 138" fill="none" xmlns="http://www.w3.org/2000/svg">
<path d="M112.491 38.0257C112.491 36.872 113.072 36.2935 114.23 36.2935H120.809C121.949 36.2935 122.985 36.421 123.924 36.6729C124.861 36.9248 125.669 37.298 126.343 37.7924C127.018 38.2869 127.545 38.8995 127.926 39.6365C128.307 40.3735 128.494 41.2225 128.494 42.1896C128.494 43.1567 128.272 44.0492 127.829 44.9324C127.386 45.8155 126.734 46.4965 125.869 46.9817V47.0438C126.521 47.2335 127.071 47.5103 127.514 47.8773C127.957 48.2442 128.319 48.6609 128.606 49.1211C128.89 49.5845 129.096 50.0727 129.224 50.5858C129.352 51.102 129.415 51.6089 129.415 52.1127C129.415 53.3535 129.177 54.3983 128.703 55.2473C128.229 56.0994 127.595 56.7866 126.805 57.3121C126.016 57.8377 125.098 58.2202 124.052 58.4627C123.01 58.7053 121.927 58.8235 120.809 58.8235H114.23C113.069 58.8235 112.491 58.2451 112.491 57.0913V38.0288V38.0257ZM120.872 45.0194C121.568 45.0194 122.073 44.8111 122.389 44.3881C122.704 43.9683 122.863 43.4863 122.863 42.939C122.863 42.3917 122.701 41.9626 122.373 41.5832C122.045 41.2038 121.515 41.0172 120.775 41.0172H118.022V45.0194H120.869H120.872ZM121.346 54.0936C122.148 54.0936 122.748 53.8572 123.147 53.3846C123.547 52.9119 123.75 52.3615 123.75 51.7302C123.75 51.0989 123.553 50.5578 123.166 50.1069C122.776 49.656 122.18 49.429 121.377 49.429H118.025V54.0936H121.346Z" fill="#27AAE1"/>
<path d="M137.318 37.7116C137.633 36.7662 138.288 36.2935 139.278 36.2935H142.125C143.114 36.2935 143.769 36.7662 144.085 37.7116L150.633 56.8364C150.842 57.4459 150.817 57.9279 150.555 58.2855C150.29 58.6431 149.843 58.8204 149.21 58.8204H147.122C146.129 58.8204 145.477 58.3383 145.162 57.3712L144.213 54.0936H137.159L136.21 57.3712C135.935 58.3383 135.292 58.8204 134.281 58.8204H132.193C131.559 58.8204 131.113 58.6431 130.847 58.2855C130.582 57.9279 130.557 57.4459 130.769 56.8364L137.315 37.7116H137.318ZM142.914 49.684L141.65 45.3055C141.544 44.9479 141.444 44.5499 141.35 44.1083C141.257 43.6667 141.154 43.2469 141.051 42.8488C140.945 42.3855 140.839 41.9159 140.736 41.4308H140.673C140.567 41.9128 140.461 42.3855 140.358 42.8488C140.252 43.2469 140.152 43.6667 140.058 44.1083C139.965 44.5499 139.862 44.9479 139.759 45.3055L138.463 49.684H142.924H142.914Z" fill="#27AAE1"/>
<path d="M153.224 38.0257C153.224 36.872 153.804 36.2935 154.962 36.2935H161.099C162.257 36.2935 163.159 36.3371 163.802 36.421C164.445 36.505 165.01 36.6418 165.494 36.8315C166.78 37.3135 167.797 38.119 168.546 39.2416C169.295 40.3642 169.67 41.748 169.67 43.3837C169.67 43.9932 169.601 44.5965 169.464 45.1967C169.327 45.7968 169.117 46.3721 168.83 46.9288C168.546 47.4854 168.193 47.9892 167.772 48.4401C167.351 48.891 166.854 49.2549 166.286 49.5285V49.5907C166.349 49.6747 166.424 49.7804 166.508 49.9048C166.592 50.0105 166.683 50.1505 166.776 50.3308C166.87 50.5081 166.992 50.7133 167.142 50.9465L170.369 56.7431C170.728 57.3526 170.784 57.8501 170.544 58.2388C170.3 58.6276 169.842 58.8204 169.167 58.8204H166.764C165.859 58.8204 165.172 58.4099 164.707 57.592L161.355 51.2264H158.761V57.0882C158.761 58.2451 158.18 58.8204 157.022 58.8204H154.965C153.804 58.8204 153.227 58.2419 153.227 57.0882V38.0257H153.224ZM161.161 46.5028C162.048 46.5028 162.747 46.2664 163.265 45.7937C163.78 45.3211 164.039 44.6338 164.039 43.7289C164.039 43.1629 163.949 42.6747 163.771 42.2642C163.593 41.8537 163.237 41.5459 162.713 41.3344C162.229 41.1261 161.533 41.0203 160.624 41.0203H158.758V46.5028H161.161Z" fill="#27AAE1"/>
<path d="M173.465 38.0257C173.465 36.872 174.046 36.2935 175.204 36.2935H181.784C182.923 36.2935 183.959 36.421 184.899 36.6729C185.838 36.9248 186.643 37.298 187.318 37.7924C187.992 38.2869 188.519 38.8995 188.9 39.6365C189.281 40.3735 189.468 41.2225 189.468 42.1896C189.468 43.1567 189.247 44.0492 188.803 44.9324C188.36 45.8155 187.708 46.4965 186.843 46.9817V47.0438C187.496 47.2335 188.045 47.5103 188.488 47.8773C188.931 48.2442 189.293 48.6609 189.581 49.1211C189.865 49.5845 190.071 50.0727 190.199 50.5858C190.327 51.102 190.389 51.6089 190.389 52.1127C190.389 53.3535 190.152 54.3983 189.677 55.2473C189.203 56.0994 188.569 56.7866 187.78 57.3121C186.99 57.8377 186.072 58.2202 185.027 58.4627C183.984 58.7053 182.901 58.8235 181.784 58.8235H175.204C174.043 58.8235 173.465 58.2451 173.465 57.0913V38.0288V38.0257ZM181.846 45.0194C182.542 45.0194 183.048 44.8111 183.363 44.3881C183.678 43.9683 183.837 43.4863 183.837 42.939C183.837 42.3917 183.675 41.9626 183.347 41.5832C183.02 41.2038 182.489 41.0172 181.749 41.0172H178.999V45.0194H181.846ZM182.32 54.0936C183.123 54.0936 183.722 53.8572 184.125 53.3846C184.524 52.9119 184.724 52.3615 184.724 51.7302C184.724 51.0989 184.527 50.5578 184.14 50.1069C183.75 49.656 183.154 49.429 182.355 49.429H179.002V54.0936H182.324H182.32Z" fill="#27AAE1"/>
<path d="M198.292 37.7116C198.607 36.7662 199.263 36.2935 200.252 36.2935H203.099C204.088 36.2935 204.744 36.7662 205.059 37.7116L211.604 56.8364C211.813 57.4459 211.788 57.9279 211.526 58.2855C211.261 58.6431 210.815 58.8204 210.181 58.8204H208.093C207.1 58.8204 206.448 58.3383 206.133 57.3712L205.184 54.0936H198.133L197.184 57.3712C196.909 58.3383 196.266 58.8204 195.255 58.8204H193.167C192.533 58.8204 192.087 58.6431 191.822 58.2855C191.556 57.9279 191.531 57.4459 191.744 56.8364L198.289 37.7116H198.292ZM203.888 49.684L202.624 45.3055C202.518 44.9479 202.418 44.5499 202.325 44.1083C202.231 43.6667 202.128 43.2469 202.025 42.8488C201.919 42.3855 201.813 41.9159 201.71 41.4308H201.647C201.541 41.9128 201.435 42.3855 201.332 42.8488C201.226 43.2469 201.126 43.6667 201.033 44.1083C200.939 44.5499 200.836 44.9479 200.733 45.3055L199.438 49.684H203.898H203.888Z" fill="#27AAE1"/>
<path d="M214.201 38.0257C214.201 36.872 214.782 36.2935 215.94 36.2935H222.232C224.002 36.2935 225.613 36.5454 227.055 37.0492C228.5 37.553 229.726 38.2838 230.741 39.2385C231.752 40.1931 232.533 41.3717 233.082 42.768C233.631 44.1642 233.903 45.744 233.903 47.5103C233.903 49.2766 233.628 50.8626 233.082 52.2682C232.533 53.6769 231.752 54.8617 230.741 55.8288C229.73 56.7959 228.5 57.536 227.055 58.0491C225.61 58.5654 224.002 58.8204 222.232 58.8204H215.94C214.779 58.8204 214.201 58.2419 214.201 57.0882V38.0257ZM222.014 54.0967C223.933 54.0967 225.441 53.54 226.537 52.4268C227.632 51.3135 228.181 49.6747 228.181 47.5103C228.181 45.3459 227.623 43.7227 226.505 42.6436C225.388 41.5614 223.89 41.0203 222.014 41.0203H219.738V54.0967H222.014Z" fill="#27AAE1"/>
<path d="M235.991 47.417C235.991 45.8 236.275 44.2917 236.846 42.8955C237.414 41.4992 238.223 40.2802 239.265 39.2416C240.308 38.2029 241.559 37.3882 243.014 36.8004C244.468 36.2127 246.07 35.9173 247.821 35.9173C249.572 35.9173 251.173 36.2127 252.627 36.8004C254.082 37.3882 255.33 38.2029 256.376 39.2416C257.419 40.2802 258.227 41.4992 258.795 42.8955C259.363 44.2917 259.65 45.8 259.65 47.417C259.65 49.0341 259.366 50.62 258.795 52.0505C258.227 53.4779 257.419 54.7248 256.376 55.7853C255.334 56.8457 254.082 57.6822 252.627 58.2917C251.173 58.9012 249.568 59.206 247.821 59.206C246.073 59.206 244.468 58.9012 243.014 58.2917C241.559 57.6822 240.311 56.8488 239.265 55.7853C238.223 54.7248 237.414 53.481 236.846 52.0505C236.278 50.6231 235.991 49.0776 235.991 47.417ZM241.715 47.417C241.715 48.3841 241.868 49.2766 242.174 50.0945C242.48 50.9123 242.901 51.6213 243.438 52.2215C243.975 52.8217 244.618 53.2944 245.367 53.6396C246.116 53.9878 246.934 54.1589 247.817 54.1589C248.701 54.1589 249.519 53.9847 250.268 53.6396C251.017 53.2944 251.66 52.8217 252.197 52.2215C252.733 51.6213 253.155 50.9154 253.461 50.0945C253.767 49.2766 253.92 48.3841 253.92 47.417C253.92 46.4499 253.767 45.6382 253.461 44.8484C253.155 44.0616 252.733 43.3775 252.197 42.7991C251.66 42.2207 251.017 41.7698 250.268 41.4432C249.519 41.1167 248.701 40.955 247.817 40.955C246.934 40.955 246.113 41.1167 245.367 41.4432C244.618 41.7698 243.975 42.2207 243.438 42.7991C242.901 43.3775 242.477 44.0585 242.174 44.8484C241.868 45.6351 241.715 46.4934 241.715 47.417Z" fill="#27AAE1"/>
<path d="M262.431 56.9638C262.263 56.8363 262.116 56.6964 261.988 56.5378C261.86 56.3792 261.773 56.202 261.72 56.0029C261.667 55.8039 261.667 55.5894 261.72 55.3561C261.773 55.126 261.904 54.8617 262.116 54.5694L263.096 53.1513C263.411 52.688 263.761 52.433 264.139 52.3801C264.519 52.3273 264.972 52.4485 265.5 52.7409C265.69 52.8466 265.915 52.971 266.18 53.1202C266.442 53.2664 266.748 53.4188 267.098 53.5774C267.447 53.736 267.831 53.8666 268.253 53.9723C268.674 54.078 269.126 54.1309 269.613 54.1309C270.434 54.1309 271.043 53.9785 271.433 53.6738C271.823 53.369 272.02 52.9958 272.02 52.5543C272.02 52.0287 271.77 51.584 271.277 51.214C270.781 50.847 270.166 50.4987 269.426 50.1753C268.686 49.8488 267.887 49.5036 267.023 49.1367C266.158 48.7697 265.356 48.3126 264.619 47.7653C263.88 47.218 263.265 46.5525 262.768 45.7657C262.272 44.979 262.026 43.9963 262.026 42.8208C262.026 41.7915 262.232 40.8524 262.644 40.0003C263.056 39.1483 263.617 38.4206 264.335 37.8111C265.053 37.2016 265.905 36.7351 266.898 36.4086C267.887 36.0821 268.955 35.9204 270.091 35.9204C271.421 35.9204 272.632 36.1039 273.727 36.4708C274.823 36.8377 275.647 37.2109 276.193 37.5903C276.658 37.9261 276.92 38.29 276.983 38.6787C277.045 39.0674 276.961 39.4934 276.73 39.9537L275.971 41.4339C275.656 42.0434 275.291 42.3544 274.879 42.3637C274.467 42.373 274.042 42.2642 273.599 42.0341C273.072 41.7822 272.529 41.5459 271.97 41.3251C271.411 41.1043 270.762 40.9954 270.025 40.9954C269.139 40.9954 268.508 41.1478 268.128 41.4526C267.747 41.7573 267.56 42.1305 267.56 42.5721C267.56 43.1194 267.806 43.5703 268.302 43.9279C268.799 44.2855 269.414 44.6214 270.153 44.9355C270.89 45.2495 271.692 45.5823 272.557 45.9275C273.421 46.2726 274.224 46.7142 274.96 47.2522C275.697 47.7871 276.315 48.4494 276.811 49.2362C277.307 50.023 277.554 51.0056 277.554 52.1811C277.554 53.1265 277.379 54.0252 277.033 54.8741C276.683 55.7262 276.174 56.4694 275.5 57.11C274.826 57.7506 273.993 58.2606 273 58.6369C272.007 59.0163 270.881 59.2028 269.617 59.2028C268.814 59.2028 268.05 59.1282 267.322 58.9821C266.595 58.8359 265.921 58.6524 265.3 58.4316C264.679 58.2108 264.12 57.9683 263.624 57.7071C263.127 57.4459 262.734 57.1971 262.438 56.967L262.431 56.9638Z" fill="#27AAE1"/>
<path d="M112.051 66.3552C112.051 64.1597 113.153 63.062 115.356 63.062H119.261C121.465 63.062 122.567 64.1597 122.567 66.3552V80.1841H138.189V66.3552C138.189 64.1597 139.29 63.062 141.494 63.062H145.399C147.602 63.062 148.704 64.1597 148.704 66.3552V102.574C148.704 104.77 147.602 105.867 145.399 105.867H141.494C139.29 105.867 138.189 104.77 138.189 102.574V89.1028H122.567V102.574C122.567 104.77 121.465 105.867 119.261 105.867H115.356C113.153 105.867 112.051 104.77 112.051 102.574V66.3552Z" fill="#27AAE1"/>
<path d="M154.594 66.3552C154.594 64.1597 155.696 63.062 157.9 63.062H178.21C180.413 63.062 181.515 64.1597 181.515 66.3552V68.7497C181.515 70.9452 180.413 72.0429 178.21 72.0429H165.11V79.8265H174.904C177.108 79.8265 178.21 80.9242 178.21 83.1197V85.5142C178.21 87.7096 177.108 88.8074 174.904 88.8074H165.11V96.8895H179.049C181.253 96.8895 182.355 97.9873 182.355 100.183V102.577C182.355 104.773 181.253 105.87 179.049 105.87H157.896C155.693 105.87 154.591 104.773 154.591 102.577V66.3583L154.594 66.3552Z" fill="#27AAE1"/>
<path d="M185.841 66.3552C185.841 64.1597 186.943 63.062 189.147 63.062H193.051C195.255 63.062 196.357 64.1597 196.357 66.3552V96.8864H210.599C212.803 96.8864 213.905 97.9842 213.905 100.18V102.574C213.905 104.77 212.803 105.867 210.599 105.867H189.147C186.943 105.867 185.841 104.77 185.841 102.574V66.3552Z" fill="#27AAE1"/>
<path d="M215.824 66.3552C215.824 64.1597 216.926 63.062 219.13 63.062H233.672C235.754 63.062 237.658 63.4196 239.381 64.1411C241.104 64.8594 242.574 65.8763 243.797 67.1948C245.018 68.5134 245.97 70.0682 246.653 71.8656C247.334 73.663 247.674 75.6377 247.674 77.7928C247.674 79.9478 247.334 81.9349 246.653 83.751C245.973 85.5671 245.021 87.1343 243.797 88.4498C242.574 89.7683 241.104 90.7945 239.381 91.5315C237.658 92.2716 235.754 92.6386 233.672 92.6386H226.34V102.577C226.34 104.773 225.238 105.87 223.034 105.87H219.13C216.926 105.87 215.824 104.773 215.824 102.577V66.3583V66.3552ZM231.509 83.6577C233.35 83.6577 234.724 83.1104 235.626 82.0126C236.528 80.9149 236.977 79.5093 236.977 77.7928C236.977 76.0762 236.537 74.6893 235.654 73.6319C234.774 72.5746 233.45 72.046 231.687 72.046H226.34V83.6608H231.509V83.6577Z" fill="#27AAE1"/>
<path d="M249.656 102.335C249.334 102.095 249.057 101.825 248.816 101.526C248.576 101.228 248.404 100.889 248.304 100.509C248.205 100.13 248.205 99.7225 248.304 99.2809C248.404 98.8424 248.654 98.3449 249.057 97.7851L250.92 95.0921C251.522 94.2152 252.181 93.727 252.902 93.6243C253.623 93.5248 254.485 93.7549 255.486 94.3147C255.845 94.5137 256.276 94.7532 256.779 95.033C257.278 95.3129 257.862 95.6021 258.52 95.9007C259.182 96.1992 259.912 96.4511 260.715 96.6501C261.517 96.8491 262.378 96.9486 263.299 96.9486C264.86 96.9486 266.011 96.6594 266.754 96.081C267.494 95.5026 267.865 94.7936 267.865 93.9571C267.865 92.9589 267.394 92.1099 266.455 91.4133C265.512 90.7167 264.342 90.0575 262.94 89.4386C261.539 88.8198 260.015 88.1606 258.374 87.464C256.732 86.7674 255.209 85.8998 253.807 84.8611C252.406 83.8225 251.232 82.5568 250.293 81.058C249.35 79.5622 248.882 77.6963 248.882 75.4605C248.882 73.5044 249.272 71.7195 250.052 70.1024C250.833 68.4854 251.906 67.0984 253.267 65.9416C254.628 64.7848 256.251 63.8954 258.133 63.2766C260.015 62.6577 262.038 62.3499 264.201 62.3499C266.726 62.3499 269.027 62.7013 271.112 63.3979C273.194 64.0975 274.757 64.8035 275.8 65.5218C276.68 66.1593 277.183 66.8496 277.301 67.5866C277.423 68.3268 277.261 69.1353 276.82 70.0122L275.378 72.8265C274.776 73.9833 274.086 74.5742 273.306 74.5928C272.526 74.6146 271.714 74.4032 270.871 73.9647C269.869 73.4858 268.836 73.038 267.778 72.6182C266.717 72.1984 265.484 71.99 264.082 71.99C262.4 71.99 261.198 72.2792 260.477 72.8576C259.756 73.436 259.394 74.145 259.394 74.9816C259.394 76.0202 259.866 76.8785 260.805 77.5564C261.745 78.2343 262.918 78.8749 264.32 79.472C265.721 80.0722 267.244 80.7003 268.886 81.3596C270.528 82.0189 272.051 82.8554 273.453 83.8722C274.854 84.8891 276.028 86.1486 276.967 87.6443C277.907 89.1401 278.378 91.0059 278.378 93.2418C278.378 95.0361 278.047 96.7434 277.385 98.3604C276.724 99.9775 275.753 101.396 274.47 102.611C273.187 103.83 271.605 104.798 269.723 105.516C267.837 106.234 265.696 106.595 263.293 106.595C261.77 106.595 260.318 106.455 258.935 106.175C257.553 105.895 256.27 105.547 255.09 105.127C253.907 104.707 252.846 104.25 251.906 103.75C250.964 103.252 250.215 102.782 249.653 102.344L249.656 102.335Z" fill="#27AAE1"/>
<path d="M89.9429 70.3636C89.5122 70.317 89.1064 70.4134 88.7693 70.5129C88.7537 70.516 88.7412 70.5191 88.7318 70.5222L88.5133 70.3387C88.3011 70.1615 88.1013 69.9967 87.9702 69.8381C87.5114 69.2721 87.09 68.6813 86.6187 68.0158C85.904 67.0082 84.8771 66.5915 83.7222 66.8434C83.6878 66.8496 83.6535 66.8559 83.6161 66.859C83.5099 66.8745 83.3695 66.8932 83.1947 66.9398C83.1884 66.9367 83.1853 66.9305 83.1791 66.9243C82.5579 66.3614 81.8525 66.0193 81.222 65.7519C81.0316 65.671 80.7101 65.5342 80.629 65.4471C79.7956 64.5205 78.7937 64.0167 77.9228 63.6435C77.4921 63.46 77.0614 63.1335 76.6056 62.7883C76.4371 62.6608 76.2654 62.5333 76.0938 62.409C75.4633 61.958 74.6923 61.4605 73.7497 61.1837C72.395 60.7888 71.2651 60.0425 70.2944 58.8981C68.1376 56.3605 66.5676 53.7639 65.497 50.959C64.6792 48.8164 63.8177 46.6551 62.975 44.5312C62.5848 43.5547 61.9949 42.3108 60.8525 41.3779C60.1222 40.7809 59.3606 40.1278 58.4554 39.3224C58.0652 38.9741 57.6782 38.6196 57.2943 38.2651C56.8417 37.8484 56.3891 37.4286 55.9271 37.0243C55.1281 36.3246 54.226 35.9857 53.324 36.0541C51.7384 36.0727 50.2527 36.5143 48.6546 37.441C47.9804 37.8297 47.4529 38.3428 47.0408 39.0052C46.4884 39.8946 45.9297 40.7404 45.3772 41.5179C44.3846 42.9203 44.0475 44.4845 44.3722 46.1638C44.6812 47.7653 44.9902 49.3326 45.3616 50.8874C45.5895 51.8421 45.7892 52.775 45.7299 53.6986C45.7143 53.9443 45.6862 54.19 45.6581 54.4356C45.6238 54.7373 45.5894 55.0389 45.5738 55.3406C45.4833 56.9048 45.6581 58.4036 45.8392 59.6662C46.0483 61.0998 46.2262 62.636 46.1388 64.1659C46.1263 64.3992 46.0639 64.6697 45.9983 64.9589C45.9453 65.189 45.8922 65.4192 45.8579 65.6524C45.7955 66.0473 45.7986 66.4174 45.8672 66.7594C45.9265 67.0393 46.0358 67.2694 46.1169 67.4343C46.1419 67.484 46.1669 67.5338 46.1856 67.5866C46.2699 67.8043 46.3635 68.022 46.4572 68.2397C46.6351 68.647 46.8036 69.0327 46.8505 69.3685C46.9815 70.2921 46.994 71.2437 47.0096 72.2481L47.0159 72.615C47.0315 73.6008 46.9316 74.5524 46.7194 75.4418C46.582 76.014 46.5196 76.5209 46.5227 76.9935C46.5383 78.6759 47.1158 80.2401 48.2425 81.6457C48.4017 81.8447 48.5672 82.0375 48.7357 82.2272C48.8481 82.3578 48.9636 82.4884 49.0759 82.6221C49.1508 82.7123 49.1664 82.731 49.0978 82.8865C48.9323 83.2721 48.7607 83.6701 48.6109 84.093C48.1177 85.4986 48.5952 86.671 49.9249 87.3116C50.237 87.464 50.5429 87.5728 50.8363 87.6785C51.008 87.7407 51.1797 87.8029 51.3482 87.8713L51.5948 87.9739C51.9225 88.1108 52.2347 88.2383 52.5093 88.3875C52.4095 88.7483 52.3252 89.0779 52.2628 89.4355C52.0287 90.838 52.759 91.9731 54.1293 92.3213C54.4914 92.4146 54.8472 92.4551 55.1593 92.4893C55.2748 92.5017 55.3903 92.5141 55.5058 92.5328C55.8117 92.5763 56.1207 92.6074 56.4297 92.6416C57.0633 92.7101 57.6626 92.7754 58.2119 92.9184C59.2201 93.1858 60.2002 93.5528 61.2396 93.9446L61.6547 94.1001C62.4569 94.3986 63.5368 94.7189 64.7666 94.5355C65.0694 94.4888 65.3846 94.4608 65.6999 94.4453C66.9671 94.3893 67.3729 94.7749 67.6663 95.5088C67.7974 95.8384 67.9535 96.1401 68.1033 96.4168C68.509 97.1756 69.099 97.6887 69.8044 97.9499C70.6877 96.8678 71.5648 95.798 72.4294 94.7438C76.9022 89.2863 81.1253 84.1303 85.2266 78.7847C87.3117 76.0637 89.1095 73.2961 90.5828 70.5378C90.3206 70.4289 90.0802 70.3823 89.9398 70.3667L89.9429 70.3636Z" fill="#4FB983"/>
<path d="M45.9484 85.6572C45.8704 84.8984 45.9671 84.0899 46.2543 83.2658C46.2637 83.2378 46.273 83.213 46.2824 83.185C45.371 82.0468 44.7374 80.8247 44.3753 79.5248C42.9863 78.5297 41.613 77.5191 40.2677 76.4711C36.622 73.6288 34.1406 69.8505 33.3572 65.0926C32.402 59.2992 36.3567 52.4361 42.6305 50.1224C42.3777 48.9687 42.1498 47.8119 41.922 46.6364C41.6504 45.234 41.7222 43.8595 42.1155 42.5596C42.0718 42.5596 42.0281 42.5534 41.9813 42.5534C29.3682 42.3264 20.2883 57.3836 24.0994 68.249C26.3686 74.7203 30.96 79.1237 36.4816 82.6843C40.2677 85.1223 42.8459 86.0148 46.7225 88.3129C45.9235 87.3986 45.7892 86.5559 45.9453 85.6541L45.9484 85.6572Z" fill="#27AAE1"/>
<path d="M106.055 46.453C105.696 43.4366 104.81 40.6254 103.352 38.0599V38.0536C103.024 37.4877 102.665 36.9372 102.284 36.393C102.188 36.2562 102.091 36.1194 101.991 35.9826C101.595 35.4415 101.18 34.9097 100.727 34.3966C100.043 33.6254 99.2974 32.8822 98.4796 32.1732C98.0707 31.8186 97.6462 31.4704 97.203 31.1283C96.6381 30.6929 96.0575 30.298 95.4645 29.9342C94.2784 29.2096 93.0424 28.6281 91.7689 28.1647C91.1321 27.9346 90.4829 27.7325 89.8274 27.5614C87.861 27.0452 85.8197 26.7778 83.744 26.7C83.0511 26.6752 82.3582 26.669 81.659 26.6814C80.8444 26.6969 80.0484 26.7498 79.265 26.8275C79.1838 26.8338 79.1027 26.84 79.0215 26.8493C78.3005 26.9271 77.5951 27.0297 76.9053 27.1603C76.8023 27.1789 76.7024 27.2007 76.6025 27.2225C74.3459 27.6796 72.2515 28.4415 70.3725 29.5485C70.3506 29.561 70.3319 29.5734 70.31 29.5859C69.8294 29.872 69.3643 30.1798 68.9117 30.5126C67.5571 31.5077 66.3366 32.7174 65.2692 34.154C64.9227 34.6236 64.5918 35.1149 64.2766 35.6343C64.2329 35.7058 64.1892 35.7742 64.1455 35.8488C63.8271 36.3899 63.5212 36.9466 63.2372 37.5436C62.9407 38.1687 62.6879 38.8093 62.4506 39.4623C64.0456 40.7715 64.8415 42.4601 65.3004 43.6169L65.3753 43.8097C65.4315 43.9528 65.4908 44.0958 65.547 44.2389C65.575 44.1984 65.6031 44.1611 65.6281 44.1207C65.7061 44.0087 65.7811 43.8906 65.856 43.7755C66.0245 43.5236 66.1806 43.2562 66.3585 43.0167C66.3741 42.995 66.3928 42.9763 66.4116 42.9546C66.6051 42.7058 66.8173 42.4788 67.0233 42.2424C67.22 42.0154 67.4041 41.7729 67.6132 41.5583C67.7849 41.3841 67.9784 41.2349 68.1564 41.0701C68.2219 41.011 68.2874 40.9519 68.353 40.8928C68.5777 40.6938 68.7869 40.4761 69.0209 40.2895C69.1364 40.1993 69.2644 40.1278 69.3799 40.0407C69.5328 39.9381 69.6827 39.8293 69.8356 39.7267C70.0853 39.5556 70.3194 39.369 70.5816 39.2136C70.8531 39.0519 71.1465 38.9212 71.4275 38.7751C71.7146 38.6258 71.9862 38.4641 72.2858 38.3335C72.626 38.1842 72.9912 38.0692 73.347 37.9417C73.6061 37.8422 73.8621 37.7333 74.1305 37.6525C74.4176 37.5654 74.7298 37.5094 75.0263 37.4379C75.0887 37.4255 75.148 37.4068 75.2105 37.3944C75.5101 37.3228 75.8004 37.2358 76.1094 37.1798C76.7898 37.0554 77.4921 36.9683 78.2162 36.9124C78.7437 36.8719 79.2619 36.8502 79.7738 36.8408C80.7601 36.8253 81.7183 36.8719 82.6453 36.9683C82.6797 36.9714 82.7171 36.9715 82.7515 36.9777C83.2322 37.0305 83.7035 37.0989 84.1654 37.1829C84.6929 37.2762 85.2079 37.3975 85.7136 37.5312C85.8728 37.5716 86.0257 37.6214 86.1818 37.668C86.5282 37.7706 86.8716 37.8795 87.2087 38.0008C87.3772 38.0599 87.5426 38.122 87.7081 38.1874C88.0389 38.318 88.3604 38.4579 88.6757 38.6072C88.8161 38.6725 88.9597 38.7347 89.097 38.8062C89.5403 39.0301 89.9741 39.2664 90.3893 39.5276C90.8731 39.8324 91.3319 40.1714 91.7751 40.5227C91.8843 40.6098 91.9936 40.7 92.1028 40.7902C92.5367 41.1571 92.9612 41.5396 93.3513 41.9532C94.5281 43.1971 95.5082 44.6618 96.2666 46.3348C96.5413 46.9412 96.7692 47.5507 96.9752 48.1633C97.0345 48.3437 97.0875 48.5272 97.1437 48.7075C97.2811 49.1584 97.3997 49.6125 97.5027 50.0665C97.5432 50.2468 97.5869 50.4272 97.6213 50.6107C97.7399 51.2202 97.8366 51.8328 97.896 52.4423V52.4485C98.0302 53.8199 98.0208 55.1944 97.8991 56.572C97.8991 56.5782 97.8991 56.5844 97.8991 56.5876C97.8429 57.2033 97.7586 57.8221 97.6619 58.4378C97.6306 58.6244 97.5963 58.811 97.5651 58.9976C97.4839 59.4578 97.3903 59.915 97.2873 60.3752C97.2467 60.5587 97.2061 60.739 97.1624 60.9225C97.0126 61.5413 96.8534 62.1602 96.6693 62.7759C96.4539 63.5036 96.2167 64.2188 95.967 64.9309C95.9389 65.0149 95.9046 65.0958 95.8734 65.1797C95.7704 65.4689 95.6611 65.7519 95.5519 66.038C95.4364 66.3459 95.3178 66.6537 95.196 66.9554C95.1835 66.9865 95.1711 67.0145 95.1586 67.0455C94.9713 67.5058 94.7778 67.9629 94.5749 68.4138C94.5125 68.5538 94.45 68.6937 94.3876 68.8305C94.3814 68.8461 94.372 68.8616 94.3658 68.8803C94.1254 69.4027 93.882 69.922 93.626 70.4351C91.875 73.946 89.7431 77.2516 87.346 80.38C81.4343 88.089 75.1636 95.5275 68.687 103.526C67.9379 101.678 67.5508 100.509 67.0077 99.4208C66.8236 99.0508 66.6238 98.69 66.4209 98.3355C65.9059 97.9748 65.4471 97.5301 65.0632 96.9984C63.284 97.2471 61.7764 96.7869 60.7901 96.42L60.3719 96.2645C59.3887 95.8944 58.4679 95.5492 57.5814 95.316C57.2162 95.2196 56.7137 95.1667 56.1831 95.1077C60.5498 98.8766 63.5275 103.662 64.7417 109.68C64.8447 110.187 65.06 110.672 65.2723 111.316C65.5813 111.095 65.8029 110.949 65.9995 110.806C66.1057 110.731 66.2149 110.656 66.3023 110.575C67.7631 109.226 69.2113 107.867 70.6534 106.502C70.9624 106.206 71.2714 105.911 71.5804 105.615C72.8071 104.443 74.0244 103.264 75.2323 102.073C75.4758 101.834 75.7192 101.595 75.9627 101.352C82.2926 95.0672 88.3011 88.4871 93.5979 81.2601C93.7478 81.0548 93.8882 80.8465 94.038 80.6412V80.6537C94.5031 80.0037 94.9651 79.3507 95.4208 78.6977C95.5768 78.4707 95.7329 78.2436 95.889 78.0166C96.4445 77.2019 96.9908 76.3809 97.5183 75.5537C97.6088 75.4138 97.6962 75.2708 97.7836 75.1308C98.3548 74.2228 98.9135 73.3054 99.4441 72.3756C99.466 72.3352 99.4878 72.2948 99.5128 72.2543C100.518 70.4911 101.442 68.6906 102.263 66.8465C102.269 66.8279 102.278 66.8123 102.288 66.7937C102.328 66.7035 102.372 66.6102 102.409 66.52C102.425 66.4827 102.437 66.4485 102.453 66.4112C103.155 64.8003 103.776 63.1553 104.304 61.4698C104.345 61.3361 104.388 61.2055 104.429 61.0718C104.435 61.0531 104.438 61.0345 104.444 61.0158C104.997 59.1935 105.434 57.3215 105.746 55.3965C105.746 55.3841 105.749 55.3717 105.752 55.3561C105.89 54.4916 106.014 53.624 106.099 52.7408C106.205 51.6493 106.255 50.5765 106.252 49.5254C106.245 48.4743 106.186 47.4481 106.064 46.4405L106.055 46.453Z" fill="#27AAE1"/>
</svg>
