<svg width="338" height="148" viewBox="0 0 338 148" fill="none" xmlns="http://www.w3.org/2000/svg">
<path d="M120.705 40.781C120.705 39.5437 121.328 38.9233 122.57 38.9233H129.63C130.853 38.9233 131.965 39.0601 132.973 39.3302C133.978 39.6004 134.845 40.0006 135.568 40.5308C136.292 41.0611 136.858 41.7181 137.266 42.5085C137.675 43.2989 137.876 44.2094 137.876 45.2466C137.876 46.2838 137.638 47.241 137.163 48.1881C136.687 49.1353 135.987 49.8657 135.059 50.3859V50.4526C135.759 50.6561 136.349 50.9529 136.824 51.3464C137.3 51.74 137.688 52.1869 137.997 52.6805C138.301 53.1774 138.522 53.701 138.66 54.2513C138.797 54.8049 138.864 55.3485 138.864 55.8888C138.864 57.2195 138.609 58.3401 138.1 59.2505C137.591 60.1643 136.911 60.9014 136.064 61.465C135.217 62.0286 134.232 62.4389 133.11 62.699C131.991 62.9591 130.829 63.0859 129.63 63.0859H122.57C121.324 63.0859 120.705 62.4655 120.705 61.2282V40.7843V40.781ZM129.697 48.2815C130.444 48.2815 130.987 48.0581 131.325 47.6045C131.663 47.1543 131.834 46.6373 131.834 46.0504C131.834 45.4634 131.66 45.0032 131.308 44.5963C130.957 44.1894 130.387 43.9893 129.593 43.9893H126.639V48.2815H129.694H129.697ZM130.206 58.0132C131.067 58.0132 131.71 57.7598 132.139 57.2528C132.568 56.7459 132.785 56.1556 132.785 55.4786C132.785 54.8016 132.574 54.2213 132.159 53.7377C131.74 53.2541 131.101 53.0106 130.24 53.0106H126.643V58.0132H130.206Z" fill="#B9B6B4"/>
<path d="M147.344 40.4441C147.682 39.4303 148.386 38.9233 149.447 38.9233H152.502C153.564 38.9233 154.267 39.4303 154.605 40.4441L161.632 60.9548C161.856 61.6084 161.829 62.1254 161.548 62.5089C161.263 62.8924 160.784 63.0825 160.105 63.0825H157.864C156.799 63.0825 156.099 62.5656 155.761 61.5284L154.743 58.0132H147.173L146.155 61.5284C145.86 62.5656 145.171 63.0825 144.085 63.0825H141.845C141.165 63.0825 140.686 62.8924 140.401 62.5089C140.117 62.1254 140.09 61.6084 140.318 60.9548L147.341 40.4441H147.344ZM153.349 53.2841L151.993 48.5883C151.879 48.2048 151.772 47.7779 151.671 47.3043C151.571 46.8308 151.46 46.3805 151.35 45.9536C151.236 45.4567 151.122 44.9531 151.012 44.4329H150.945C150.831 44.9498 150.717 45.4567 150.606 45.9536C150.492 46.3805 150.385 46.8308 150.285 47.3043C150.184 47.7779 150.074 48.2048 149.963 48.5883L148.573 53.2841H153.359H153.349Z" fill="#B9B6B4"/>
<path d="M164.412 40.781C164.412 39.5437 165.035 38.9233 166.277 38.9233H172.862C174.104 38.9233 175.072 38.97 175.762 39.0601C176.452 39.1501 177.058 39.2969 177.577 39.5003C178.957 40.0172 180.049 40.881 180.853 42.085C181.657 43.2889 182.059 44.773 182.059 46.5273C182.059 47.1809 181.985 47.828 181.837 48.4716C181.69 49.1153 181.466 49.7323 181.158 50.3292C180.853 50.9262 180.474 51.4665 180.022 51.9501C179.57 52.4337 179.038 52.8239 178.428 53.1174V53.1841C178.495 53.2741 178.575 53.3875 178.666 53.5209C178.756 53.6343 178.853 53.7844 178.954 53.9778C179.054 54.1679 179.185 54.388 179.346 54.6381L182.809 60.8547C183.194 61.5084 183.254 62.042 182.996 62.4589C182.735 62.8757 182.243 63.0825 181.519 63.0825H178.94C177.969 63.0825 177.232 62.6423 176.733 61.7652L173.136 54.9383H170.353V61.2249C170.353 62.4655 169.73 63.0825 168.488 63.0825H166.28C165.035 63.0825 164.415 62.4622 164.415 61.2249V40.781H164.412ZM172.929 49.8723C173.88 49.8723 174.63 49.6189 175.186 49.1119C175.739 48.605 176.017 47.868 176.017 46.8975C176.017 46.2905 175.919 45.7669 175.729 45.3267C175.538 44.8864 175.156 44.5563 174.593 44.3295C174.074 44.106 173.327 43.9926 172.353 43.9926H170.35V49.8723H172.929Z" fill="#B9B6B4"/>
<path d="M186.131 40.781C186.131 39.5437 186.754 38.9233 187.997 38.9233H195.057C196.279 38.9233 197.391 39.0601 198.399 39.3302C199.407 39.6004 200.271 40.0006 200.995 40.5308C201.718 41.0611 202.284 41.7181 202.693 42.5085C203.101 43.2989 203.302 44.2094 203.302 45.2466C203.302 46.2838 203.065 47.241 202.589 48.1881C202.113 49.1353 201.413 49.8657 200.486 50.3859V50.4526C201.186 50.6561 201.775 50.9529 202.251 51.3464C202.726 51.74 203.115 52.1869 203.423 52.6805C203.728 53.1774 203.949 53.701 204.086 54.2513C204.223 54.8049 204.29 55.3485 204.29 55.8888C204.29 57.2195 204.036 58.3401 203.527 59.2505C203.018 60.1643 202.338 60.9014 201.49 61.465C200.643 62.0286 199.658 62.4389 198.536 62.699C197.418 62.9591 196.256 63.0859 195.057 63.0859H187.997C186.751 63.0859 186.131 62.4655 186.131 61.2282V40.7843V40.781ZM195.124 48.2815C195.871 48.2815 196.413 48.0581 196.751 47.6045C197.09 47.1543 197.26 46.6373 197.26 46.0504C197.26 45.4634 197.086 45.0032 196.735 44.5963C196.383 44.1894 195.814 43.9893 195.02 43.9893H192.069V48.2815H195.124ZM195.633 58.0132C196.493 58.0132 197.137 57.7598 197.569 57.2528C197.997 56.7459 198.212 56.1556 198.212 55.4786C198.212 54.8016 198.001 54.2213 197.585 53.7377C197.167 53.2541 196.527 53.0106 195.67 53.0106H192.073V58.0132H195.636H195.633Z" fill="#B9B6B4"/>
<path d="M212.771 40.4441C213.109 39.4303 213.812 38.9233 214.874 38.9233H217.928C218.99 38.9233 219.693 39.4303 220.032 40.4441L227.055 60.9548C227.279 61.6084 227.252 62.1254 226.971 62.5089C226.686 62.8924 226.207 63.0825 225.528 63.0825H223.287C222.222 63.0825 221.522 62.5656 221.184 61.5284L220.166 58.0132H212.6L211.582 61.5284C211.287 62.5656 210.597 63.0825 209.512 63.0825H207.271C206.591 63.0825 206.112 62.8924 205.828 62.5089C205.543 62.1254 205.516 61.6084 205.744 60.9548L212.767 40.4441H212.771ZM218.776 53.2841L217.419 48.5883C217.305 48.2048 217.198 47.7779 217.098 47.3043C216.997 46.8308 216.887 46.3805 216.776 45.9536C216.662 45.4567 216.548 44.9531 216.438 44.4329H216.371C216.257 44.9498 216.143 45.4567 216.033 45.9536C215.919 46.3805 215.812 46.8308 215.711 47.3043C215.611 47.7779 215.5 48.2048 215.39 48.5883L214 53.2841H218.786H218.776Z" fill="#B9B6B4"/>
<path d="M229.841 40.781C229.841 39.5437 230.464 38.9233 231.707 38.9233H238.459C240.358 38.9233 242.086 39.1935 243.633 39.7338C245.184 40.274 246.5 41.0578 247.589 42.0816C248.674 43.1055 249.511 44.3695 250.101 45.8669C250.69 47.3644 250.981 49.0586 250.981 50.9529C250.981 52.8472 250.687 54.5481 250.101 56.0555C249.511 57.5663 248.674 58.837 247.589 59.8742C246.504 60.9114 245.184 61.7051 243.633 62.2554C242.083 62.809 240.358 63.0825 238.459 63.0825H231.707C230.461 63.0825 229.841 62.4622 229.841 61.2249V40.781ZM238.224 58.0166C240.284 58.0166 241.902 57.4196 243.077 56.2256C244.253 55.0317 244.842 53.2741 244.842 50.9529C244.842 48.6317 244.243 46.8908 243.044 45.7335C241.845 44.5729 240.237 43.9926 238.224 43.9926H235.783V58.0166H238.224Z" fill="#B9B6B4"/>
<path d="M253.222 50.8531C253.222 49.1188 253.527 47.5013 254.14 46.0039C254.749 44.5065 255.617 43.1991 256.735 42.0852C257.854 40.9713 259.197 40.0975 260.758 39.4672C262.318 38.8368 264.036 38.52 265.915 38.52C267.794 38.52 269.512 38.8368 271.073 39.4672C272.634 40.0975 273.974 40.9713 275.096 42.0852C276.214 43.1991 277.082 44.5065 277.691 46.0039C278.301 47.5013 278.609 49.1188 278.609 50.8531C278.609 52.5873 278.304 54.2882 277.691 55.8223C277.082 57.3531 276.214 58.6905 275.096 59.8277C273.977 60.965 272.634 61.8621 271.073 62.5158C269.512 63.1695 267.791 63.4963 265.915 63.4963C264.04 63.4963 262.318 63.1695 260.758 62.5158C259.197 61.8621 257.857 60.9683 256.735 59.8277C255.617 58.6905 254.749 57.3564 254.14 55.8223C253.53 54.2915 253.222 52.634 253.222 50.8531ZM259.364 50.8531C259.364 51.8903 259.529 52.8474 259.857 53.7246C260.185 54.6017 260.637 55.3621 261.213 56.0057C261.789 56.6494 262.479 57.1563 263.283 57.5265C264.087 57.9001 264.964 58.0835 265.912 58.0835C266.86 58.0835 267.737 57.8967 268.541 57.5265C269.345 57.1563 270.035 56.6494 270.611 56.0057C271.187 55.3621 271.639 54.605 271.967 53.7246C272.296 52.8474 272.46 51.8903 272.46 50.8531C272.46 49.8159 272.296 48.9454 271.967 48.0983C271.639 47.2545 271.187 46.5208 270.611 45.9005C270.035 45.2802 269.345 44.7966 268.541 44.4464C267.737 44.0962 266.86 43.9228 265.912 43.9228C264.964 43.9228 264.083 44.0962 263.283 44.4464C262.479 44.7966 261.789 45.2802 261.213 45.9005C260.637 46.5208 260.182 47.2512 259.857 48.0983C259.529 48.9421 259.364 49.8626 259.364 50.8531Z" fill="#B9B6B4"/>
<path d="M281.593 61.0918C281.412 60.9551 281.255 60.805 281.117 60.6349C280.98 60.4648 280.886 60.2747 280.829 60.0613C280.772 59.8478 280.772 59.6177 280.829 59.3676C280.886 59.1208 281.027 58.8373 281.255 58.5238L282.306 57.003C282.645 56.5061 283.02 56.2326 283.425 56.1759C283.834 56.1192 284.319 56.2493 284.885 56.5628C285.089 56.6762 285.331 56.8096 285.615 56.9697C285.897 57.1264 286.225 57.2898 286.6 57.4599C286.975 57.63 287.387 57.7701 287.839 57.8835C288.291 57.9969 288.777 58.0536 289.299 58.0536C290.18 58.0536 290.833 57.8901 291.252 57.5633C291.671 57.2365 291.882 56.8363 291.882 56.3627C291.882 55.7991 291.614 55.3221 291.085 54.9253C290.552 54.5317 289.892 54.1582 289.098 53.8114C288.305 53.4612 287.447 53.091 286.52 52.6974C285.592 52.3039 284.731 51.8137 283.941 51.2267C283.147 50.6397 282.487 49.926 281.955 49.0822C281.422 48.2385 281.158 47.1846 281.158 45.9239C281.158 44.82 281.379 43.8128 281.821 42.899C282.263 41.9852 282.866 41.2048 283.636 40.5512C284.406 39.8975 285.321 39.3972 286.386 39.047C287.447 38.6969 288.593 38.5234 289.812 38.5234C291.239 38.5234 292.538 38.7202 293.714 39.1137C294.889 39.5073 295.773 39.9075 296.36 40.3144C296.859 40.6746 297.14 41.0648 297.207 41.4816C297.274 41.8985 297.183 42.3554 296.936 42.849L296.122 44.4365C295.783 45.0902 295.392 45.4237 294.949 45.4337C294.507 45.4437 294.052 45.327 293.576 45.0802C293.01 44.81 292.428 44.5566 291.828 44.3198C291.229 44.083 290.532 43.9663 289.742 43.9663C288.79 43.9663 288.114 44.1297 287.705 44.4565C287.297 44.7833 287.096 45.1836 287.096 45.6571C287.096 46.2441 287.36 46.7277 287.893 47.1112C288.425 47.4948 289.085 47.8549 289.879 48.1918C290.669 48.5286 291.53 48.8855 292.458 49.2557C293.385 49.6259 294.246 50.0994 295.037 50.6764C295.827 51.25 296.49 51.9604 297.023 52.8042C297.555 53.6479 297.82 54.7018 297.82 55.9625C297.82 56.9763 297.632 57.9402 297.26 58.8506C296.885 59.7644 296.339 60.5615 295.616 61.2485C294.893 61.9356 293.998 62.4825 292.933 62.8861C291.868 63.2929 290.659 63.493 289.303 63.493C288.442 63.493 287.621 63.413 286.841 63.2563C286.061 63.0995 285.337 62.9027 284.671 62.6659C284.004 62.4292 283.405 62.169 282.872 61.8889C282.34 61.6087 281.918 61.3419 281.6 61.0951L281.593 61.0918Z" fill="#B9B6B4"/>
<path d="M120.232 71.1637C120.232 68.8091 121.415 67.6318 123.779 67.6318H127.969C130.334 67.6318 131.516 68.8091 131.516 71.1637V85.9947H148.279V71.1637C148.279 68.8091 149.461 67.6318 151.825 67.6318H156.015C158.38 67.6318 159.562 68.8091 159.562 71.1637V110.007C159.562 112.362 158.38 113.539 156.015 113.539H151.825C149.461 113.539 148.279 112.362 148.279 110.007V95.5596H131.516V110.007C131.516 112.362 130.334 113.539 127.969 113.539H123.779C121.415 113.539 120.232 112.362 120.232 110.007V71.1637Z" fill="#B9B6B4"/>
<path d="M165.882 71.1637C165.882 68.8091 167.064 67.6318 169.429 67.6318H191.222C193.586 67.6318 194.769 68.8091 194.769 71.1637V73.7317C194.769 76.0862 193.586 77.2635 191.222 77.2635H177.165V85.6112H187.675C190.04 85.6112 191.222 86.7884 191.222 89.143V91.711C191.222 94.0655 190.04 95.2428 187.675 95.2428H177.165V103.911H192.123C194.487 103.911 195.67 105.088 195.67 107.442V110.01C195.67 112.365 194.487 113.542 192.123 113.542H169.425C167.061 113.542 165.879 112.365 165.879 110.01V71.167L165.882 71.1637Z" fill="#B9B6B4"/>
<path d="M199.411 71.1637C199.411 68.8091 200.593 67.6318 202.957 67.6318H207.147C209.512 67.6318 210.694 68.8091 210.694 71.1637V103.907H225.976C228.341 103.907 229.523 105.085 229.523 107.439V110.007C229.523 112.362 228.341 113.539 225.976 113.539H202.957C200.593 113.539 199.411 112.362 199.411 110.007V71.1637Z" fill="#B9B6B4"/>
<path d="M231.583 71.1637C231.583 68.8091 232.765 67.6318 235.13 67.6318H250.734C252.968 67.6318 255.011 68.0154 256.859 68.7891C258.708 69.5595 260.285 70.6501 261.598 72.0641C262.908 73.4782 263.929 75.1457 264.663 77.0734C265.393 79.0011 265.758 81.1188 265.758 83.43C265.758 85.7412 265.393 87.8723 264.663 89.82C263.933 91.7677 262.911 93.4485 261.598 94.8593C260.285 96.2733 258.708 97.3739 256.859 98.1643C255.011 98.9581 252.968 99.3516 250.734 99.3516H242.866V110.01C242.866 112.365 241.684 113.542 239.32 113.542H235.13C232.765 113.542 231.583 112.365 231.583 110.01V71.167V71.1637ZM248.413 89.7199C250.389 89.7199 251.862 89.133 252.83 87.9557C253.798 86.7784 254.28 85.271 254.28 83.43C254.28 81.5891 253.808 80.1016 252.86 78.9677C251.916 77.8338 250.496 77.2668 248.604 77.2668H242.866V89.7233H248.413V89.7199Z" fill="#B9B6B4"/>
<path d="M267.885 109.75C267.54 109.494 267.242 109.203 266.984 108.883C266.726 108.563 266.542 108.2 266.435 107.793C266.327 107.386 266.327 106.949 266.435 106.475C266.542 106.005 266.81 105.472 267.242 104.871L269.241 101.983C269.888 101.043 270.594 100.519 271.368 100.409C272.142 100.302 273.066 100.549 274.141 101.149C274.526 101.363 274.988 101.62 275.528 101.92C276.063 102.22 276.69 102.53 277.396 102.85C278.106 103.17 278.89 103.44 279.751 103.654C280.612 103.867 281.536 103.974 282.524 103.974C284.199 103.974 285.435 103.664 286.232 103.044C287.025 102.423 287.424 101.663 287.424 100.766C287.424 99.6952 286.918 98.7847 285.91 98.0376C284.899 97.2906 283.643 96.5836 282.139 95.9199C280.635 95.2562 279.001 94.5492 277.239 93.8021C275.477 93.0551 273.843 92.1246 272.339 91.0107C270.835 89.8968 269.576 88.5394 268.568 86.9319C267.557 85.3277 267.054 83.3267 267.054 80.9288C267.054 78.831 267.473 76.9167 268.31 75.1825C269.147 73.4482 270.3 71.9608 271.76 70.7202C273.22 69.4795 274.962 68.5257 276.981 67.862C279.001 67.1983 281.171 66.8682 283.492 66.8682C286.201 66.8682 288.67 67.245 290.907 67.9921C293.141 68.7425 294.819 69.4995 295.938 70.2699C296.882 70.9536 297.421 71.694 297.549 72.4844C297.679 73.2782 297.505 74.1453 297.033 75.0858L295.485 78.104C294.839 79.3446 294.099 79.9783 293.262 79.9983C292.424 80.0216 291.553 79.7949 290.649 79.3246C289.574 78.811 288.466 78.3308 287.33 77.8805C286.191 77.4303 284.868 77.2069 283.365 77.2069C281.559 77.2069 280.27 77.517 279.496 78.1373C278.723 78.7577 278.334 79.518 278.334 80.4152C278.334 81.5291 278.84 82.4496 279.848 83.1766C280.856 83.9037 282.115 84.5907 283.619 85.231C285.123 85.8747 286.757 86.5484 288.519 87.2554C290.281 87.9624 291.915 88.8596 293.419 89.9501C294.923 91.0407 296.182 92.3914 297.19 93.9956C298.198 95.5997 298.704 97.6007 298.704 99.9987C298.704 101.923 298.349 103.754 297.639 105.488C296.929 107.222 295.887 108.743 294.511 110.047C293.134 111.355 291.436 112.392 289.417 113.162C287.394 113.933 285.096 114.319 282.517 114.319C280.883 114.319 279.326 114.169 277.842 113.869C276.358 113.569 274.982 113.195 273.716 112.745C272.446 112.295 271.308 111.805 270.3 111.268C269.288 110.734 268.484 110.231 267.881 109.76L267.885 109.75Z" fill="#B9B6B4"/>
<path d="M96.5102 75.4622C96.048 75.4122 95.6126 75.5156 95.2509 75.6223C95.2341 75.6256 95.2208 75.629 95.2107 75.6323L94.9763 75.4356C94.7485 75.2455 94.5342 75.0687 94.3935 74.8986C93.9012 74.2916 93.449 73.658 92.9433 72.9443C92.1763 71.8637 91.0745 71.4168 89.8353 71.6869C89.7984 71.6936 89.7616 71.7003 89.7214 71.7036C89.6075 71.7203 89.4568 71.7403 89.2692 71.7903C89.2626 71.787 89.2592 71.7803 89.2525 71.7737C88.586 71.17 87.8291 70.8032 87.1526 70.5163C86.9483 70.4296 86.6033 70.2829 86.5162 70.1895C85.622 69.1957 84.5469 68.6554 83.6125 68.2552C83.1503 68.0584 82.6881 67.7082 82.1991 67.338C82.0183 67.2013 81.834 67.0645 81.6498 66.9311C80.9733 66.4476 80.1461 65.9139 79.1346 65.6171C77.6811 65.1936 76.4687 64.3932 75.4271 63.1659C73.1128 60.4444 71.4281 57.6597 70.2793 54.6514C69.4019 52.3536 68.4775 50.0357 67.5732 47.7579C67.1546 46.7107 66.5216 45.3766 65.2958 44.3761C64.5121 43.7358 63.6948 43.0354 62.7236 42.1716C62.3049 41.7981 61.8896 41.4179 61.4777 41.0377C60.9921 40.5908 60.5064 40.1406 60.0107 39.707C59.1533 38.9566 58.1854 38.5931 57.2175 38.6665C55.5161 38.6865 53.9219 39.1601 52.2071 40.1539C51.4837 40.5708 50.9177 41.1211 50.4756 41.8315C49.8828 42.7853 49.2833 43.6924 48.6905 44.5262C47.6254 46.0303 47.2637 47.7078 47.612 49.5088C47.9436 51.2263 48.2752 52.9072 48.6737 54.5747C48.9182 55.5986 49.1326 56.5991 49.0689 57.5896C49.0522 57.8531 49.0221 58.1166 48.9919 58.38C48.9551 58.7035 48.9182 59.027 48.9015 59.3505C48.8044 61.0281 48.9919 62.6356 49.1862 63.9896C49.4106 65.5271 49.6015 67.1746 49.5077 68.8155C49.4943 69.0656 49.4273 69.3557 49.357 69.6659C49.3 69.9127 49.2431 70.1595 49.2063 70.4096C49.1393 70.8332 49.1426 71.23 49.2163 71.5969C49.2799 71.897 49.3972 72.1438 49.4842 72.3206C49.511 72.374 49.5378 72.4273 49.5579 72.484C49.6484 72.7175 49.7488 72.9509 49.8493 73.1844C50.0402 73.6213 50.2211 74.0348 50.2713 74.395C50.412 75.3855 50.4254 76.4061 50.4421 77.4833L50.4488 77.8768C50.4656 78.934 50.3584 79.9546 50.1306 80.9084C49.9833 81.522 49.9163 82.0657 49.9196 82.5726C49.9364 84.3768 50.556 86.0544 51.765 87.5618C51.9358 87.7753 52.1134 87.9821 52.2942 88.1855C52.4148 88.3256 52.5387 88.4656 52.6593 88.609C52.7397 88.7058 52.7564 88.7258 52.6827 88.8925C52.5052 89.3061 52.321 89.733 52.1602 90.1865C51.6311 91.694 52.1435 92.9513 53.5703 93.6383C53.9052 93.8017 54.2334 93.9185 54.5482 94.0319C54.7324 94.0986 54.9166 94.1653 55.0975 94.2386L55.3621 94.3487C55.7137 94.4954 56.0486 94.6322 56.3434 94.7922C56.2362 95.1791 56.1458 95.5326 56.0788 95.9162C55.8276 97.4203 56.6113 98.6376 58.0816 99.0111C58.4701 99.1112 58.8519 99.1545 59.1868 99.1912C59.3108 99.2045 59.4347 99.2179 59.5586 99.2379C59.8868 99.2846 60.2184 99.3179 60.55 99.3546C61.2298 99.428 61.8729 99.498 62.4623 99.6514C63.5441 99.9382 64.5958 100.332 65.7111 100.752L66.1565 100.919C67.0172 101.239 68.1761 101.582 69.4956 101.386C69.8205 101.336 70.1588 101.306 70.497 101.289C71.8568 101.229 72.2922 101.642 72.607 102.43C72.7477 102.783 72.9152 103.107 73.0759 103.403C73.5113 104.217 74.1443 104.767 74.9012 105.048C75.849 103.887 76.7902 102.74 77.7179 101.609C82.5173 95.7561 87.0487 90.2265 91.4496 84.4936C93.6868 81.5754 95.616 78.6072 97.1968 75.649C96.9154 75.5323 96.6576 75.4822 96.5068 75.4656L96.5102 75.4622Z" fill="#B9B6B4"/>
<path d="M49.3034 91.8643C49.2197 91.0505 49.3235 90.1834 49.6316 89.2996C49.6416 89.2696 49.6517 89.2429 49.6617 89.2129C48.6838 87.9923 48.0039 86.6816 47.6154 85.2875C46.125 84.2203 44.6514 83.1364 43.2079 82.0125C39.296 78.9643 36.6334 74.9122 35.7928 69.8095C34.7679 63.5963 39.0113 56.2358 45.7432 53.7545C45.4719 52.5172 45.2274 51.2766 44.9829 50.0159C44.6915 48.5118 44.7686 47.0377 45.1906 45.6437C45.1437 45.6437 45.0968 45.637 45.0466 45.637C31.5125 45.3935 21.7697 61.5419 25.8591 73.1946C28.2939 80.1349 33.2206 84.8573 39.1453 88.676C43.2079 91.2907 45.9743 92.2478 50.134 94.7124C49.2766 93.7319 49.1326 92.8281 49.3 91.8609L49.3034 91.8643Z" fill="#B9B6B4"/>
<path d="M113.799 49.8194C113.414 46.5844 112.462 43.5695 110.898 40.8181V40.8114C110.547 40.2044 110.162 39.6141 109.753 39.0305C109.649 38.8837 109.545 38.737 109.438 38.5902C109.013 38.0099 108.567 37.4396 108.082 36.8894C107.348 36.0623 106.548 35.2652 105.67 34.5048C105.231 34.1246 104.776 33.7511 104.3 33.3842C103.694 32.9173 103.071 32.4937 102.435 32.1035C101.162 31.3265 99.836 30.7028 98.4695 30.2059C97.7863 29.9591 97.0896 29.7423 96.3863 29.5589C94.2763 29.0053 92.0859 28.7185 89.8587 28.6351C89.1152 28.6084 88.3717 28.6017 87.6215 28.6151C86.7473 28.6317 85.8933 28.6884 85.0526 28.7718C84.9656 28.7785 84.8785 28.7852 84.7914 28.7952C84.0177 28.8785 83.2608 28.9886 82.5207 29.1287C82.4101 29.1487 82.303 29.172 82.1958 29.1954C79.7743 29.6856 77.527 30.5027 75.5108 31.69C75.4874 31.7033 75.4673 31.7167 75.4438 31.73C74.928 32.0368 74.429 32.367 73.9434 32.7239C72.4898 33.7911 71.1803 35.0884 70.0349 36.6292C69.6631 37.1328 69.3081 37.6598 68.9698 38.2167C68.923 38.2934 68.8761 38.3668 68.8292 38.4468C68.4876 39.0271 68.1593 39.6241 67.8546 40.2644C67.5364 40.9348 67.2651 41.6218 67.0106 42.3222C68.722 43.7262 69.576 45.5372 70.0684 46.7778L70.1488 46.9846C70.209 47.138 70.2727 47.2914 70.333 47.4448C70.3631 47.4015 70.3932 47.3615 70.42 47.3181C70.5038 47.198 70.5842 47.0713 70.6645 46.9479C70.8454 46.6778 71.0128 46.3909 71.2038 46.1341C71.2205 46.1108 71.2406 46.0908 71.2607 46.0674C71.4683 45.8006 71.6961 45.5572 71.9171 45.3037C72.1281 45.0603 72.3257 44.8001 72.5501 44.57C72.7343 44.3832 72.942 44.2232 73.1329 44.0464C73.2032 43.983 73.2736 43.9197 73.3439 43.8563C73.585 43.6429 73.8094 43.4094 74.0606 43.2093C74.1845 43.1126 74.3218 43.0359 74.4458 42.9425C74.6099 42.8324 74.7706 42.7157 74.9347 42.6056C75.2027 42.4222 75.4539 42.2221 75.7352 42.0554C76.0266 41.8819 76.3414 41.7419 76.6428 41.5851C76.951 41.425 77.2423 41.2516 77.5639 41.1115C77.9289 40.9515 78.3208 40.8281 78.7026 40.6913C78.9806 40.5846 79.2552 40.4679 79.5432 40.3812C79.8514 40.2878 80.1863 40.2278 80.5044 40.151C80.5714 40.1377 80.6351 40.1177 80.702 40.1044C81.0236 40.0276 81.335 39.9343 81.6666 39.8742C82.3967 39.7408 83.1503 39.6474 83.9273 39.5874C84.4933 39.5441 85.0493 39.5207 85.5986 39.5107C86.6569 39.494 87.6851 39.5441 88.6798 39.6474C88.7167 39.6508 88.7568 39.6508 88.7937 39.6575C89.3095 39.7142 89.8152 39.7875 90.3109 39.8776C90.8769 39.9776 91.4295 40.1077 91.9721 40.2511C92.1429 40.2945 92.307 40.3478 92.4744 40.3978C92.8462 40.5079 93.2146 40.6246 93.5763 40.7547C93.7572 40.8181 93.9347 40.8848 94.1122 40.9548C94.4672 41.0949 94.8122 41.2449 95.1504 41.405C95.3012 41.4751 95.4552 41.5418 95.6026 41.6185C96.0782 41.8586 96.5437 42.1121 96.9891 42.3922C97.5083 42.719 98.0006 43.0826 98.4762 43.4594C98.5934 43.5528 98.7106 43.6495 98.8278 43.7462C99.2934 44.1398 99.7489 44.55 100.168 44.9936C101.43 46.3276 102.482 47.8984 103.296 49.6927C103.59 50.343 103.835 50.9967 104.056 51.6537C104.12 51.8471 104.177 52.0439 104.237 52.2373C104.384 52.7209 104.511 53.2078 104.622 53.6947C104.665 53.8882 104.712 54.0816 104.749 54.2784C104.876 54.932 104.98 55.589 105.044 56.2427V56.2494C105.188 57.7201 105.178 59.1942 105.047 60.6717C105.047 60.6783 105.047 60.685 105.047 60.6884C104.987 61.3487 104.897 62.0124 104.793 62.6727C104.759 62.8728 104.722 63.0729 104.689 63.273C104.602 63.7666 104.501 64.2569 104.391 64.7505C104.347 64.9472 104.304 65.1407 104.257 65.3374C104.096 66.0011 103.925 66.6648 103.728 67.3251C103.497 68.1055 103.242 68.8726 102.974 69.6363C102.944 69.7264 102.907 69.8131 102.874 69.9031C102.763 70.2133 102.646 70.5168 102.529 70.8236C102.405 71.1538 102.278 71.4839 102.147 71.8074C102.133 71.8408 102.12 71.8708 102.107 71.9042C101.906 72.3978 101.698 72.888 101.48 73.3716C101.413 73.5217 101.346 73.6717 101.279 73.8185C101.273 73.8352 101.263 73.8518 101.256 73.8719C100.998 74.4321 100.737 74.9891 100.462 75.5394C98.5834 79.3047 96.2959 82.8498 93.7237 86.2049C87.3803 94.4725 80.6518 102.45 73.7022 111.028C72.8984 109.047 72.4831 107.793 71.9004 106.625C71.7028 106.229 71.4884 105.842 71.2707 105.462C70.7181 105.075 70.2258 104.598 69.8138 104.027C67.9048 104.294 66.2871 103.801 65.2288 103.407L64.78 103.24C63.725 102.844 62.737 102.473 61.7858 102.223C61.394 102.12 60.8548 102.063 60.2854 102C64.9709 106.042 68.166 111.175 69.4689 117.628C69.5794 118.171 69.8105 118.692 70.0382 119.382C70.3698 119.145 70.6076 118.989 70.8186 118.835C70.9325 118.755 71.0497 118.675 71.1435 118.588C72.7109 117.141 74.2649 115.684 75.8122 114.219C76.1438 113.903 76.4754 113.586 76.8069 113.269C78.1232 112.012 79.4294 110.748 80.7255 109.47C80.9867 109.213 81.248 108.957 81.5092 108.697C88.3014 101.956 94.7485 94.8994 100.432 87.1487C100.593 86.9286 100.744 86.7052 100.904 86.4851V86.4984C101.403 85.8014 101.899 85.101 102.388 84.4006C102.555 84.1572 102.723 83.9137 102.89 83.6703C103.487 82.7965 104.073 81.916 104.639 81.0289C104.736 80.8788 104.83 80.7254 104.923 80.5753C105.536 79.6015 106.136 78.6176 106.705 77.6205C106.729 77.5771 106.752 77.5338 106.779 77.4904C107.857 75.5994 108.849 73.6684 109.729 71.6907C109.736 71.6707 109.746 71.654 109.756 71.634C109.8 71.5373 109.847 71.4373 109.887 71.3405C109.904 71.3005 109.917 71.2638 109.934 71.2238C110.687 69.4963 111.354 67.732 111.92 65.9244C111.963 65.781 112.01 65.6409 112.054 65.4975C112.06 65.4775 112.064 65.4575 112.071 65.4375C112.663 63.4831 113.132 61.4754 113.467 59.411C113.467 59.3977 113.47 59.3843 113.474 59.3677C113.621 58.4405 113.755 57.51 113.846 56.5629C113.959 55.3923 114.013 54.2417 114.01 53.1144C114.003 51.9872 113.939 50.8866 113.809 49.806L113.799 49.8194Z" fill="#B9B6B4"/>
</svg>
